<svg width="60" height="60" viewBox="0 0 60 60" fill="none" xmlns="http://www.w3.org/2000/svg">
<path d="M30 56C29.4477 56 29 56.4477 29 57C29 57.5523 29.4477 58 30 58V56ZM38 58C38.5523 58 39 57.5523 39 57C39 56.4477 38.5523 56 38 56V58ZM32 51C32 50.4477 31.5523 50 31 50C30.4477 50 30 50.4477 30 51H32ZM30 56C30 56.5523 30.4477 57 31 57C31.5523 57 32 56.5523 32 56H30ZM10 33C10 33.5523 10.4477 34 11 34C11.5523 34 12 33.5523 12 33H10ZM50 36C50 36.5523 50.4477 37 51 37C51.5523 37 52 36.5523 52 36H50ZM42.0473 52C42.5995 52 43.0473 51.5523 43.0473 51C43.0473 50.4477 42.5995 50 42.0473 50V52ZM30 50C29.4477 50 29 50.4477 29 51C29 51.5523 29.4477 52 30 52V50ZM1 53C1 53.5523 1.44772 54 2 54C2.55228 54 3 53.5523 3 53H1ZM23 53C23 53.5523 23.4477 54 24 54C24.5523 54 25 53.5523 25 53H23ZM15.7563 54V53C15.3912 53 15.0551 53.199 14.8795 53.5191L15.7563 54ZM10.2437 54L11.1205 53.5191C10.9449 53.199 10.6088 53 10.2437 53V54ZM1 54V53C0.447715 53 0 53.4477 0 54H1ZM25 54H26C26 53.4477 25.5523 53 25 53V54ZM44.003 12.997C43.4507 12.997 43.003 13.4448 43.003 13.997C43.003 14.5493 43.4507 14.997 44.003 14.997V12.997ZM54.003 18.9986C54.003 19.5509 54.4507 19.9986 55.003 19.9986C55.5552 19.9986 56.003 19.5509 56.003 18.9986H54.003ZM16.0044 15C16.5567 15 17.0044 14.5523 17.0044 14C17.0044 13.4477 16.5567 13 16.0044 13V15ZM4 19.0016C4 19.5538 4.44772 20.0016 5 20.0016C5.55228 20.0016 6 19.5538 6 19.0016H4ZM30 43C29.4477 43 29 43.4477 29 44C29 44.5523 29.4477 45 30 45V43ZM43 45C43.5523 45 44 44.5523 44 44C44 43.4477 43.5523 43 43 43V45ZM48 54C47.4477 54 47 54.4477 47 55C47 55.5523 47.4477 56 48 56V54ZM59 56C59.5523 56 60 55.5523 60 55C60 54.4477 59.5523 54 59 54V56ZM29 15.5C29 16.0523 29.4477 16.5 30 16.5C30.5523 16.5 31 16.0523 31 15.5H29ZM31 12C31 11.4477 30.5523 11 30 11C29.4477 11 29 11.4477 29 12H31ZM25 7C25 7.55228 25.4477 8 26 8C26.5523 8 27 7.55228 27 7H25ZM33 7C33 7.55228 33.4477 8 34 8C34.5523 8 35 7.55228 35 7H33ZM30 58H38V56H30V58ZM30 51V56H32V51H30ZM12 33C12 32.9967 12 32.9935 12 32.9902C12 32.987 12 32.9837 12 32.9805C12 32.9772 12 32.974 12 32.9707C12 32.9674 12 32.9642 12 32.9609C12 32.9577 12 32.9544 12 32.9512C12 32.9479 12 32.9447 12 32.9414C12 32.9382 12 32.9349 12 32.9316C12 32.9284 12 32.9251 12 32.9219C12 32.9186 12 32.9154 12 32.9121C12 32.9089 12 32.9056 12 32.9023C12 32.8991 12 32.8958 12 32.8926C12 32.8893 12 32.8861 12 32.8828C12 32.8796 12 32.8763 12 32.873C12 32.8698 12 32.8665 12 32.8633C12 32.86 12 32.8568 12 32.8535C12 32.8503 12 32.847 12 32.8437C12 32.8405 12 32.8372 12 32.834C12 32.8307 12 32.8275 12 32.8242C12 32.821 12 32.8177 12 32.8145C12 32.8112 12 32.8079 12 32.8047C12 32.8014 12 32.7982 12 32.7949C12 32.7917 12 32.7884 12 32.7852C12 32.7819 12 32.7786 12 32.7754C12 32.7721 12 32.7689 12 32.7656C12 32.7624 12 32.7591 12 32.7559C12 32.7526 12 32.7493 12 32.7461C12 32.7428 12 32.7396 12 32.7363C12 32.7331 12 32.7298 12 32.7266C12 32.7233 12 32.7201 12 32.7168C12 32.7135 12 32.7103 12 32.707C12 32.7038 12 32.7005 12 32.6973C12 32.694 12 32.6908 12 32.6875C12 32.6842 12 32.681 12 32.6777C12 32.6745 12 32.6712 12 32.668C12 32.6647 12 32.6615 12 32.6582C12 32.6549 12 32.6517 12 32.6484C12 32.6452 12 32.6419 12 32.6387C12 32.6354 12 32.6322 12 32.6289C12 32.6257 12 32.6224 12 32.6191C12 32.6159 12 32.6126 12 32.6094C12 32.6061 12 32.6029 12 32.5996C12 32.5964 12 32.5931 12 32.5898C12 32.5866 12 32.5833 12 32.5801C12 32.5768 12 32.5736 12 32.5703C12 32.5671 12 32.5638 12 32.5605C12 32.5573 12 32.554 12 32.5508C12 32.5475 12 32.5443 12 32.541C12 32.5378 12 32.5345 12 32.5312C12 32.528 12 32.5247 12 32.5215C12 32.5182 12 32.515 12 32.5117C12 32.5085 12 32.5052 12 32.502C12 32.4987 12 32.4954 12 32.4922C12 32.4889 12 32.4857 12 32.4824C12 32.4792 12 32.4759 12 32.4727C12 32.4694 12 32.4661 12 32.4629C12 32.4596 12 32.4564 12 32.4531C12 32.4499 12 32.4466 12 32.4434C12 32.4401 12 32.4368 12 32.4336C12 32.4303 12 32.4271 12 32.4238C12 32.4206 12 32.4173 12 32.4141C12 32.4108 12 32.4076 12 32.4043C12 32.401 12 32.3978 12 32.3945C12 32.3913 12 32.388 12 32.3848C12 32.3815 12 32.3783 12 32.375C12 32.3717 12 32.3685 12 32.3652C12 32.362 12 32.3587 12 32.3555C12 32.3522 12 32.349 12 32.3457C12 32.3424 12 32.3392 12 32.3359C12 32.3327 12 32.3294 12 32.3262C12 32.3229 12 32.3197 12 32.3164C12 32.3132 12 32.3099 12 32.3066C12 32.3034 12 32.3001 12 32.2969C12 32.2936 12 32.2904 12 32.2871C12 32.2839 12 32.2806 12 32.2773C12 32.2741 12 32.2708 12 32.2676C12 32.2643 12 32.2611 12 32.2578C12 32.2546 12 32.2513 12 32.248C12 32.2448 12 32.2415 12 32.2383C12 32.235 12 32.2318 12 32.2285C12 32.2253 12 32.222 12 32.2187C12 32.2155 12 32.2122 12 32.209C12 32.2057 12 32.2025 12 32.1992C12 32.196 12 32.1927 12 32.1895C12 32.1862 12 32.1829 12 32.1797C12 32.1764 12 32.1732 12 32.1699C12 32.1667 12 32.1634 12 32.1602C12 32.1569 12 32.1536 12 32.1504C12 32.1471 12 32.1439 12 32.1406C12 32.1374 12 32.1341 12 32.1309C12 32.1276 12 32.1243 12 32.1211C12 32.1178 12 32.1146 12 32.1113C12 32.1081 12 32.1048 12 32.1016C12 32.0983 12 32.0951 12 32.0918C12 32.0885 12 32.0853 12 32.082C12 32.0788 12 32.0755 12 32.0723C12 32.069 12 32.0658 12 32.0625C12 32.0592 12 32.056 12 32.0527C12 32.0495 12 32.0462 12 32.043C12 32.0397 12 32.0365 12 32.0332C12 32.0299 12 32.0267 12 32.0234C12 32.0202 12 32.0169 12 32.0137C12 32.0104 12 32.0072 12 32.0039C12 32.0007 12 31.9974 12 31.9941C12 31.9909 12 31.9876 12 31.9844C12 31.9811 12 31.9779 12 31.9746C12 31.9714 12 31.9681 12 31.9648C12 31.9616 12 31.9583 12 31.9551C12 31.9518 12 31.9486 12 31.9453C12 31.9421 12 31.9388 12 31.9355C12 31.9323 12 31.929 12 31.9258C12 31.9225 12 31.9193 12 31.916C12 31.9128 12 31.9095 12 31.9062C12 31.903 12 31.8997 12 31.8965C12 31.8932 12 31.89 12 31.8867C12 31.8835 12 31.8802 12 31.877C12 31.8737 12 31.8704 12 31.8672C12 31.8639 12 31.8607 12 31.8574C12 31.8542 12 31.8509 12 31.8477C12 31.8444 12 31.8411 12 31.8379C12 31.8346 12 31.8314 12 31.8281C12 31.8249 12 31.8216 12 31.8184C12 31.8151 12 31.8118 12 31.8086C12 31.8053 12 31.8021 12 31.7988C12 31.7956 12 31.7923 12 31.7891C12 31.7858 12 31.7826 12 31.7793C12 31.776 12 31.7728 12 31.7695C12 31.7663 12 31.763 12 31.7598C12 31.7565 12 31.7533 12 31.75C12 31.7467 12 31.7435 12 31.7402C12 31.737 12 31.7337 12 31.7305C12 31.7272 12 31.724 12 31.7207C12 31.7174 12 31.7142 12 31.7109C12 31.7077 12 31.7044 12 31.7012C12 31.6979 12 31.6947 12 31.6914C12 31.6882 12 31.6849 12 31.6816C12 31.6784 12 31.6751 12 31.6719C12 31.6686 12 31.6654 12 31.6621C12 31.6589 12 31.6556 12 31.6523C12 31.6491 12 31.6458 12 31.6426C12 31.6393 12 31.6361 12 31.6328C12 31.6296 12 31.6263 12 31.623C12 31.6198 12 31.6165 12 31.6133C12 31.61 12 31.6068 12 31.6035C12 31.6003 12 31.597 12 31.5937C12 31.5905 12 31.5872 12 31.584C12 31.5807 12 31.5775 12 31.5742C12 31.571 12 31.5677 12 31.5645C12 31.5612 12 31.5579 12 31.5547C12 31.5514 12 31.5482 12 31.5449C12 31.5417 12 31.5384 12 31.5352C12 31.5319 12 31.5286 12 31.5254C12 31.5221 12 31.5189 12 31.5156C12 31.5124 12 31.5091 12 31.5059C12 31.5026 12 31.4993 12 31.4961C12 31.4928 12 31.4896 12 31.4863C12 31.4831 12 31.4798 12 31.4766C12 31.4733 12 31.4701 12 31.4668C12 31.4635 12 31.4603 12 31.457C12 31.4538 12 31.4505 12 31.4473C12 31.444 12 31.4408 12 31.4375C12 31.4342 12 31.431 12 31.4277C12 31.4245 12 31.4212 12 31.418C12 31.4147 12 31.4115 12 31.4082C12 31.4049 12 31.4017 12 31.3984C12 31.3952 12 31.3919 12 31.3887C12 31.3854 12 31.3822 12 31.3789C12 31.3757 12 31.3724 12 31.3691C12 31.3659 12 31.3626 12 31.3594C12 31.3561 12 31.3529 12 31.3496C12 31.3464 12 31.3431 12 31.3398C12 31.3366 12 31.3333 12 31.3301C12 31.3268 12 31.3236 12 31.3203C12 31.3171 12 31.3138 12 31.3105C12 31.3073 12 31.304 12 31.3008C12 31.2975 12 31.2943 12 31.291C12 31.2878 12 31.2845 12 31.2812C12 31.278 12 31.2747 12 31.2715C12 31.2682 12 31.265 12 31.2617C12 31.2585 12 31.2552 12 31.252C12 31.2487 12 31.2454 12 31.2422C12 31.2389 12 31.2357 12 31.2324C12 31.2292 12 31.2259 12 31.2227C12 31.2194 12 31.2161 12 31.2129C12 31.2096 12 31.2064 12 31.2031C12 31.1999 12 31.1966 12 31.1934C12 31.1901 12 31.1868 12 31.1836C12 31.1803 12 31.1771 12 31.1738C12 31.1706 12 31.1673 12 31.1641C12 31.1608 12 31.1576 12 31.1543C12 31.151 12 31.1478 12 31.1445C12 31.1413 12 31.138 12 31.1348C12 31.1315 12 31.1283 12 31.125C12 31.1217 12 31.1185 12 31.1152C12 31.112 12 31.1087 12 31.1055C12 31.1022 12 31.099 12 31.0957C12 31.0924 12 31.0892 12 31.0859C12 31.0827 12 31.0794 12 31.0762C12 31.0729 12 31.0697 12 31.0664C12 31.0632 12 31.0599 12 31.0566C12 31.0534 12 31.0501 12 31.0469C12 31.0436 12 31.0404 12 31.0371C12 31.0339 12 31.0306 12 31.0273C12 31.0241 12 31.0208 12 31.0176C12 31.0143 12 31.0111 12 31.0078C12 31.0046 12 31.0013 12 30.998C12 30.9948 12 30.9915 12 30.9883C12 30.985 12 30.9818 12 30.9785C12 30.9753 12 30.972 12 30.9687C12 30.9655 12 30.9622 12 30.959C12 30.9557 12 30.9525 12 30.9492C12 30.946 12 30.9427 12 30.9395C12 30.9362 12 30.9329 12 30.9297C12 30.9264 12 30.9232 12 30.9199C12 30.9167 12 30.9134 12 30.9102C12 30.9069 12 30.9036 12 30.9004C12 30.8971 12 30.8939 12 30.8906C12 30.8874 12 30.8841 12 30.8809C12 30.8776 12 30.8743 12 30.8711C12 30.8678 12 30.8646 12 30.8613C12 30.8581 12 30.8548 12 30.8516C12 30.8483 12 30.8451 12 30.8418C12 30.8385 12 30.8353 12 30.832C12 30.8288 12 30.8255 12 30.8223C12 30.819 12 30.8158 12 30.8125C12 30.8092 12 30.806 12 30.8027C12 30.7995 12 30.7962 12 30.793C12 30.7897 12 30.7865 12 30.7832C12 30.7799 12 30.7767 12 30.7734C12 30.7702 12 30.7669 12 30.7637C12 30.7604 12 30.7572 12 30.7539C12 30.7507 12 30.7474 12 30.7441C12 30.7409 12 30.7376 12 30.7344C12 30.7311 12 30.7279 12 30.7246C12 30.7214 12 30.7181 12 30.7148C12 30.7116 12 30.7083 12 30.7051C12 30.7018 12 30.6986 12 30.6953C12 30.6921 12 30.6888 12 30.6855C12 30.6823 12 30.679 12 30.6758C12 30.6725 12 30.6693 12 30.666C12 30.6628 12 30.6595 12 30.6562C12 30.653 12 30.6497 12 30.6465C12 30.6432 12 30.64 12 30.6367C12 30.6335 12 30.6302 12 30.627C12 30.6237 12 30.6204 12 30.6172C12 30.6139 12 30.6107 12 30.6074C12 30.6042 12 30.6009 12 30.5977C12 30.5944 12 30.5911 12 30.5879C12 30.5846 12 30.5814 12 30.5781C12 30.5749 12 30.5716 12 30.5684C12 30.5651 12 30.5618 12 30.5586C12 30.5553 12 30.5521 12 30.5488C12 30.5456 12 30.5423 12 30.5391C12 30.5358 12 30.5326 12 30.5293C12 30.526 12 30.5228 12 30.5195C12 30.5163 12 30.513 12 30.5098C12 30.5065 12 30.5033 12 30.5C12 30.4967 12 30.4935 12 30.4902C12 30.487 12 30.4837 12 30.4805C12 30.4772 12 30.474 12 30.4707C12 30.4674 12 30.4642 12 30.4609C12 30.4577 12 30.4544 12 30.4512C12 30.4479 12 30.4447 12 30.4414C12 30.4382 12 30.4349 12 30.4316C12 30.4284 12 30.4251 12 30.4219C12 30.4186 12 30.4154 12 30.4121C12 30.4089 12 30.4056 12 30.4023C12 30.3991 12 30.3958 12 30.3926C12 30.3893 12 30.3861 12 30.3828C12 30.3796 12 30.3763 12 30.373C12 30.3698 12 30.3665 12 30.3633C12 30.36 12 30.3568 12 30.3535C12 30.3503 12 30.347 12 30.3438C12 30.3405 12 30.3372 12 30.334C12 30.3307 12 30.3275 12 30.3242C12 30.321 12 30.3177 12 30.3145C12 30.3112 12 30.3079 12 30.3047C12 30.3014 12 30.2982 12 30.2949C12 30.2917 12 30.2884 12 30.2852C12 30.2819 12 30.2786 12 30.2754C12 30.2721 12 30.2689 12 30.2656C12 30.2624 12 30.2591 12 30.2559C12 30.2526 12 30.2493 12 30.2461C12 30.2428 12 30.2396 12 30.2363C12 30.2331 12 30.2298 12 30.2266C12 30.2233 12 30.2201 12 30.2168C12 30.2135 12 30.2103 12 30.207C12 30.2038 12 30.2005 12 30.1973C12 30.194 12 30.1908 12 30.1875C12 30.1842 12 30.181 12 30.1777C12 30.1745 12 30.1712 12 30.168C12 30.1647 12 30.1615 12 30.1582C12 30.1549 12 30.1517 12 30.1484C12 30.1452 12 30.1419 12 30.1387C12 30.1354 12 30.1322 12 30.1289C12 30.1257 12 30.1224 12 30.1191C12 30.1159 12 30.1126 12 30.1094C12 30.1061 12 30.1029 12 30.0996C12 30.0964 12 30.0931 12 30.0898C12 30.0866 12 30.0833 12 30.0801C12 30.0768 12 30.0736 12 30.0703C12 30.0671 12 30.0638 12 30.0605C12 30.0573 12 30.054 12 30.0508C12 30.0475 12 30.0443 12 30.041C12 30.0378 12 30.0345 12 30.0313C12 30.028 12 30.0247 12 30.0215C12 30.0182 12 30.015 12 30.0117C12 30.0085 12 30.0052 12 30.002C12 29.9987 12 29.9954 12 29.9922C12 29.9889 12 29.9857 12 29.9824C12 29.9792 12 29.9759 12 29.9727C12 29.9694 12 29.9661 12 29.9629C12 29.9596 12 29.9564 12 29.9531C12 29.9499 12 29.9466 12 29.9434C12 29.9401 12 29.9368 12 29.9336C12 29.9303 12 29.9271 12 29.9238C12 29.9206 12 29.9173 12 29.9141C12 29.9108 12 29.9076 12 29.9043C12 29.901 12 29.8978 12 29.8945C12 29.8913 12 29.888 12 29.8848C12 29.8815 12 29.8783 12 29.875C12 29.8717 12 29.8685 12 29.8652C12 29.862 12 29.8587 12 29.8555C12 29.8522 12 29.849 12 29.8457C12 29.8424 12 29.8392 12 29.8359C12 29.8327 12 29.8294 12 29.8262C12 29.8229 12 29.8197 12 29.8164C12 29.8132 12 29.8099 12 29.8066C12 29.8034 12 29.8001 12 29.7969C12 29.7936 12 29.7904 12 29.7871C12 29.7839 12 29.7806 12 29.7773C12 29.7741 12 29.7708 12 29.7676C12 29.7643 12 29.7611 12 29.7578C12 29.7546 12 29.7513 12 29.748C12 29.7448 12 29.7415 12 29.7383C12 29.735 12 29.7318 12 29.7285C12 29.7253 12 29.722 12 29.7188C12 29.7155 12 29.7122 12 29.709C12 29.7057 12 29.7025 12 29.6992C12 29.696 12 29.6927 12 29.6895C12 29.6862 12 29.6829 12 29.6797C12 29.6764 12 29.6732 12 29.6699C12 29.6667 12 29.6634 12 29.6602C12 29.6569 12 29.6536 12 29.6504C12 29.6471 12 29.6439 12 29.6406C12 29.6374 12 29.6341 12 29.6309C12 29.6276 12 29.6243 12 29.6211C12 29.6178 12 29.6146 12 29.6113C12 29.6081 12 29.6048 12 29.6016C12 29.5983 12 29.5951 12 29.5918C12 29.5885 12 29.5853 12 29.582C12 29.5788 12 29.5755 12 29.5723C12 29.569 12 29.5658 12 29.5625C12 29.5592 12 29.556 12 29.5527C12 29.5495 12 29.5462 12 29.543C12 29.5397 12 29.5365 12 29.5332C12 29.5299 12 29.5267 12 29.5234C12 29.5202 12 29.5169 12 29.5137C12 29.5104 12 29.5072 12 29.5039C12 29.5007 12 29.4974 12 29.4941C12 29.4909 12 29.4876 12 29.4844C12 29.4811 12 29.4779 12 29.4746C12 29.4714 12 29.4681 12 29.4648C12 29.4616 12 29.4583 12 29.4551C12 29.4518 12 29.4486 12 29.4453C12 29.4421 12 29.4388 12 29.4355C12 29.4323 12 29.429 12 29.4258C12 29.4225 12 29.4193 12 29.416C12 29.4128 12 29.4095 12 29.4063C12 29.403 12 29.3997 12 29.3965C12 29.3932 12 29.39 12 29.3867C12 29.3835 12 29.3802 12 29.377C12 29.3737 12 29.3704 12 29.3672C12 29.3639 12 29.3607 12 29.3574C12 29.3542 12 29.3509 12 29.3477C12 29.3444 12 29.3411 12 29.3379C12 29.3346 12 29.3314 12 29.3281C12 29.3249 12 29.3216 12 29.3184C12 29.3151 12 29.3118 12 29.3086C12 29.3053 12 29.3021 12 29.2988C12 29.2956 12 29.2923 12 29.2891C12 29.2858 12 29.2826 12 29.2793C12 29.276 12 29.2728 12 29.2695C12 29.2663 12 29.263 12 29.2598C12 29.2565 12 29.2533 12 29.25C12 29.2467 12 29.2435 12 29.2402C12 29.237 12 29.2337 12 29.2305C12 29.2272 12 29.224 12 29.2207C12 29.2174 12 29.2142 12 29.2109C12 29.2077 12 29.2044 12 29.2012C12 29.1979 12 29.1947 12 29.1914C12 29.1882 12 29.1849 12 29.1816C12 29.1784 12 29.1751 12 29.1719C12 29.1686 12 29.1654 12 29.1621C12 29.1589 12 29.1556 12 29.1523C12 29.1491 12 29.1458 12 29.1426C12 29.1393 12 29.1361 12 29.1328C12 29.1296 12 29.1263 12 29.123C12 29.1198 12 29.1165 12 29.1133C12 29.11 12 29.1068 12 29.1035C12 29.1003 12 29.097 12 29.0938C12 29.0905 12 29.0872 12 29.084C12 29.0807 12 29.0775 12 29.0742C12 29.071 12 29.0677 12 29.0645C12 29.0612 12 29.0579 12 29.0547C12 29.0514 12 29.0482 12 29.0449C12 29.0417 12 29.0384 12 29.0352C12 29.0319 12 29.0286 12 29.0254C12 29.0221 12 29.0189 12 29.0156C12 29.0124 12 29.0091 12 29.0059C12 29.0026 12 28.9993 12 28.9961C12 28.9928 12 28.9896 12 28.9863C12 28.9831 12 28.9798 12 28.9766C12 28.9733 12 28.9701 12 28.9668C12 28.9635 12 28.9603 12 28.957C12 28.9538 12 28.9505 12 28.9473C12 28.944 12 28.9408 12 28.9375C12 28.9342 12 28.931 12 28.9277C12 28.9245 12 28.9212 12 28.918C12 28.9147 12 28.9115 12 28.9082C12 28.9049 12 28.9017 12 28.8984C12 28.8952 12 28.8919 12 28.8887C12 28.8854 12 28.8822 12 28.8789C12 28.8757 12 28.8724 12 28.8691C12 28.8659 12 28.8626 12 28.8594C12 28.8561 12 28.8529 12 28.8496C12 28.8464 12 28.8431 12 28.8398C12 28.8366 12 28.8333 12 28.8301C12 28.8268 12 28.8236 12 28.8203C12 28.8171 12 28.8138 12 28.8105C12 28.8073 12 28.804 12 28.8008C12 28.7975 12 28.7943 12 28.791C12 28.7878 12 28.7845 12 28.7813C12 28.778 12 28.7747 12 28.7715C12 28.7682 12 28.765 12 28.7617C12 28.7585 12 28.7552 12 28.752C12 28.7487 12 28.7454 12 28.7422C12 28.7389 12 28.7357 12 28.7324C12 28.7292 12 28.7259 12 28.7227C12 28.7194 12 28.7161 12 28.7129C12 28.7096 12 28.7064 12 28.7031C12 28.6999 12 28.6966 12 28.6934C12 28.6901 12 28.6868 12 28.6836C12 28.6803 12 28.6771 12 28.6738C12 28.6706 12 28.6673 12 28.6641C12 28.6608 12 28.6576 12 28.6543C12 28.651 12 28.6478 12 28.6445C12 28.6413 12 28.638 12 28.6348C12 28.6315 12 28.6283 12 28.625C12 28.6217 12 28.6185 12 28.6152C12 28.612 12 28.6087 12 28.6055C12 28.6022 12 28.599 12 28.5957C12 28.5924 12 28.5892 12 28.5859C12 28.5827 12 28.5794 12 28.5762C12 28.5729 12 28.5697 12 28.5664C12 28.5632 12 28.5599 12 28.5566C12 28.5534 12 28.5501 12 28.5469C12 28.5436 12 28.5404 12 28.5371C12 28.5339 12 28.5306 12 28.5273C12 28.5241 12 28.5208 12 28.5176C12 28.5143 12 28.5111 12 28.5078C12 28.5046 12 28.5013 12 28.498C12 28.4948 12 28.4915 12 28.4883C12 28.485 12 28.4818 12 28.4785C12 28.4753 12 28.472 12 28.4688C12 28.4655 12 28.4622 12 28.459C12 28.4557 12 28.4525 12 28.4492C12 28.446 12 28.4427 12 28.4395C12 28.4362 12 28.4329 12 28.4297C12 28.4264 12 28.4232 12 28.4199C12 28.4167 12 28.4134 12 28.4102C12 28.4069 12 28.4036 12 28.4004C12 28.3971 12 28.3939 12 28.3906C12 28.3874 12 28.3841 12 28.3809C12 28.3776 12 28.3743 12 28.3711C12 28.3678 12 28.3646 12 28.3613C12 28.3581 12 28.3548 12 28.3516C12 28.3483 12 28.3451 12 28.3418C12 28.3385 12 28.3353 12 28.332C12 28.3288 12 28.3255 12 28.3223C12 28.319 12 28.3158 12 28.3125C12 28.3092 12 28.306 12 28.3027C12 28.2995 12 28.2962 12 28.293C12 28.2897 12 28.2865 12 28.2832C12 28.2799 12 28.2767 12 28.2734C12 28.2702 12 28.2669 12 28.2637C12 28.2604 12 28.2572 12 28.2539C12 28.2507 12 28.2474 12 28.2441C12 28.2409 12 28.2376 12 28.2344C12 28.2311 12 28.2279 12 28.2246C12 28.2214 12 28.2181 12 28.2148C12 28.2116 12 28.2083 12 28.2051C12 28.2018 12 28.1986 12 28.1953C12 28.1921 12 28.1888 12 28.1855C12 28.1823 12 28.179 12 28.1758C12 28.1725 12 28.1693 12 28.166C12 28.1628 12 28.1595 12 28.1563C12 28.153 12 28.1497 12 28.1465C12 28.1432 12 28.14 12 28.1367C12 28.1335 12 28.1302 12 28.127C12 28.1237 12 28.1204 12 28.1172C12 28.1139 12 28.1107 12 28.1074C12 28.1042 12 28.1009 12 28.0977C12 28.0944 12 28.0911 12 28.0879C12 28.0846 12 28.0814 12 28.0781C12 28.0749 12 28.0716 12 28.0684C12 28.0651 12 28.0618 12 28.0586C12 28.0553 12 28.0521 12 28.0488C12 28.0456 12 28.0423 12 28.0391C12 28.0358 12 28.0326 12 28.0293C12 28.026 12 28.0228 12 28.0195C12 28.0163 12 28.013 12 28.0098C12 28.0065 12 28.0033 12 28H10C10 28.0033 10 28.0065 10 28.0098C10 28.013 10 28.0163 10 28.0195C10 28.0228 10 28.026 10 28.0293C10 28.0326 10 28.0358 10 28.0391C10 28.0423 10 28.0456 10 28.0488C10 28.0521 10 28.0553 10 28.0586C10 28.0618 10 28.0651 10 28.0684C10 28.0716 10 28.0749 10 28.0781C10 28.0814 10 28.0846 10 28.0879C10 28.0911 10 28.0944 10 28.0977C10 28.1009 10 28.1042 10 28.1074C10 28.1107 10 28.1139 10 28.1172C10 28.1204 10 28.1237 10 28.127C10 28.1302 10 28.1335 10 28.1367C10 28.14 10 28.1432 10 28.1465C10 28.1497 10 28.153 10 28.1563C10 28.1595 10 28.1628 10 28.166C10 28.1693 10 28.1725 10 28.1758C10 28.179 10 28.1823 10 28.1855C10 28.1888 10 28.1921 10 28.1953C10 28.1986 10 28.2018 10 28.2051C10 28.2083 10 28.2116 10 28.2148C10 28.2181 10 28.2214 10 28.2246C10 28.2279 10 28.2311 10 28.2344C10 28.2376 10 28.2409 10 28.2441C10 28.2474 10 28.2507 10 28.2539C10 28.2572 10 28.2604 10 28.2637C10 28.2669 10 28.2702 10 28.2734C10 28.2767 10 28.2799 10 28.2832C10 28.2865 10 28.2897 10 28.293C10 28.2962 10 28.2995 10 28.3027C10 28.306 10 28.3092 10 28.3125C10 28.3158 10 28.319 10 28.3223C10 28.3255 10 28.3288 10 28.332C10 28.3353 10 28.3385 10 28.3418C10 28.3451 10 28.3483 10 28.3516C10 28.3548 10 28.3581 10 28.3613C10 28.3646 10 28.3678 10 28.3711C10 28.3743 10 28.3776 10 28.3809C10 28.3841 10 28.3874 10 28.3906C10 28.3939 10 28.3971 10 28.4004C10 28.4036 10 28.4069 10 28.4102C10 28.4134 10 28.4167 10 28.4199C10 28.4232 10 28.4264 10 28.4297C10 28.4329 10 28.4362 10 28.4395C10 28.4427 10 28.446 10 28.4492C10 28.4525 10 28.4557 10 28.459C10 28.4622 10 28.4655 10 28.4688C10 28.472 10 28.4753 10 28.4785C10 28.4818 10 28.485 10 28.4883C10 28.4915 10 28.4948 10 28.498C10 28.5013 10 28.5046 10 28.5078C10 28.5111 10 28.5143 10 28.5176C10 28.5208 10 28.5241 10 28.5273C10 28.5306 10 28.5339 10 28.5371C10 28.5404 10 28.5436 10 28.5469C10 28.5501 10 28.5534 10 28.5566C10 28.5599 10 28.5632 10 28.5664C10 28.5697 10 28.5729 10 28.5762C10 28.5794 10 28.5827 10 28.5859C10 28.5892 10 28.5924 10 28.5957C10 28.599 10 28.6022 10 28.6055C10 28.6087 10 28.612 10 28.6152C10 28.6185 10 28.6217 10 28.625C10 28.6283 10 28.6315 10 28.6348C10 28.638 10 28.6413 10 28.6445C10 28.6478 10 28.651 10 28.6543C10 28.6576 10 28.6608 10 28.6641C10 28.6673 10 28.6706 10 28.6738C10 28.6771 10 28.6803 10 28.6836C10 28.6868 10 28.6901 10 28.6934C10 28.6966 10 28.6999 10 28.7031C10 28.7064 10 28.7096 10 28.7129C10 28.7161 10 28.7194 10 28.7227C10 28.7259 10 28.7292 10 28.7324C10 28.7357 10 28.7389 10 28.7422C10 28.7454 10 28.7487 10 28.752C10 28.7552 10 28.7585 10 28.7617C10 28.765 10 28.7682 10 28.7715C10 28.7747 10 28.778 10 28.7813C10 28.7845 10 28.7878 10 28.791C10 28.7943 10 28.7975 10 28.8008C10 28.804 10 28.8073 10 28.8105C10 28.8138 10 28.8171 10 28.8203C10 28.8236 10 28.8268 10 28.8301C10 28.8333 10 28.8366 10 28.8398C10 28.8431 10 28.8464 10 28.8496C10 28.8529 10 28.8561 10 28.8594C10 28.8626 10 28.8659 10 28.8691C10 28.8724 10 28.8757 10 28.8789C10 28.8822 10 28.8854 10 28.8887C10 28.8919 10 28.8952 10 28.8984C10 28.9017 10 28.9049 10 28.9082C10 28.9115 10 28.9147 10 28.918C10 28.9212 10 28.9245 10 28.9277C10 28.931 10 28.9342 10 28.9375C10 28.9408 10 28.944 10 28.9473C10 28.9505 10 28.9538 10 28.957C10 28.9603 10 28.9635 10 28.9668C10 28.9701 10 28.9733 10 28.9766C10 28.9798 10 28.9831 10 28.9863C10 28.9896 10 28.9928 10 28.9961C10 28.9993 10 29.0026 10 29.0059C10 29.0091 10 29.0124 10 29.0156C10 29.0189 10 29.0221 10 29.0254C10 29.0286 10 29.0319 10 29.0352C10 29.0384 10 29.0417 10 29.0449C10 29.0482 10 29.0514 10 29.0547C10 29.0579 10 29.0612 10 29.0645C10 29.0677 10 29.071 10 29.0742C10 29.0775 10 29.0807 10 29.084C10 29.0872 10 29.0905 10 29.0938C10 29.097 10 29.1003 10 29.1035C10 29.1068 10 29.11 10 29.1133C10 29.1165 10 29.1198 10 29.123C10 29.1263 10 29.1296 10 29.1328C10 29.1361 10 29.1393 10 29.1426C10 29.1458 10 29.1491 10 29.1523C10 29.1556 10 29.1589 10 29.1621C10 29.1654 10 29.1686 10 29.1719C10 29.1751 10 29.1784 10 29.1816C10 29.1849 10 29.1882 10 29.1914C10 29.1947 10 29.1979 10 29.2012C10 29.2044 10 29.2077 10 29.2109C10 29.2142 10 29.2174 10 29.2207C10 29.224 10 29.2272 10 29.2305C10 29.2337 10 29.237 10 29.2402C10 29.2435 10 29.2467 10 29.25C10 29.2533 10 29.2565 10 29.2598C10 29.263 10 29.2663 10 29.2695C10 29.2728 10 29.276 10 29.2793C10 29.2826 10 29.2858 10 29.2891C10 29.2923 10 29.2956 10 29.2988C10 29.3021 10 29.3053 10 29.3086C10 29.3118 10 29.3151 10 29.3184C10 29.3216 10 29.3249 10 29.3281C10 29.3314 10 29.3346 10 29.3379C10 29.3411 10 29.3444 10 29.3477C10 29.3509 10 29.3542 10 29.3574C10 29.3607 10 29.3639 10 29.3672C10 29.3704 10 29.3737 10 29.377C10 29.3802 10 29.3835 10 29.3867C10 29.39 10 29.3932 10 29.3965C10 29.3997 10 29.403 10 29.4063C10 29.4095 10 29.4128 10 29.416C10 29.4193 10 29.4225 10 29.4258C10 29.429 10 29.4323 10 29.4355C10 29.4388 10 29.4421 10 29.4453C10 29.4486 10 29.4518 10 29.4551C10 29.4583 10 29.4616 10 29.4648C10 29.4681 10 29.4714 10 29.4746C10 29.4779 10 29.4811 10 29.4844C10 29.4876 10 29.4909 10 29.4941C10 29.4974 10 29.5007 10 29.5039C10 29.5072 10 29.5104 10 29.5137C10 29.5169 10 29.5202 10 29.5234C10 29.5267 10 29.5299 10 29.5332C10 29.5365 10 29.5397 10 29.543C10 29.5462 10 29.5495 10 29.5527C10 29.556 10 29.5592 10 29.5625C10 29.5658 10 29.569 10 29.5723C10 29.5755 10 29.5788 10 29.582C10 29.5853 10 29.5885 10 29.5918C10 29.5951 10 29.5983 10 29.6016C10 29.6048 10 29.6081 10 29.6113C10 29.6146 10 29.6178 10 29.6211C10 29.6243 10 29.6276 10 29.6309C10 29.6341 10 29.6374 10 29.6406C10 29.6439 10 29.6471 10 29.6504C10 29.6536 10 29.6569 10 29.6602C10 29.6634 10 29.6667 10 29.6699C10 29.6732 10 29.6764 10 29.6797C10 29.6829 10 29.6862 10 29.6895C10 29.6927 10 29.696 10 29.6992C10 29.7025 10 29.7057 10 29.709C10 29.7122 10 29.7155 10 29.7188C10 29.722 10 29.7253 10 29.7285C10 29.7318 10 29.735 10 29.7383C10 29.7415 10 29.7448 10 29.748C10 29.7513 10 29.7546 10 29.7578C10 29.7611 10 29.7643 10 29.7676C10 29.7708 10 29.7741 10 29.7773C10 29.7806 10 29.7839 10 29.7871C10 29.7904 10 29.7936 10 29.7969C10 29.8001 10 29.8034 10 29.8066C10 29.8099 10 29.8132 10 29.8164C10 29.8197 10 29.8229 10 29.8262C10 29.8294 10 29.8327 10 29.8359C10 29.8392 10 29.8424 10 29.8457C10 29.849 10 29.8522 10 29.8555C10 29.8587 10 29.862 10 29.8652C10 29.8685 10 29.8717 10 29.875C10 29.8783 10 29.8815 10 29.8848C10 29.888 10 29.8913 10 29.8945C10 29.8978 10 29.901 10 29.9043C10 29.9076 10 29.9108 10 29.9141C10 29.9173 10 29.9206 10 29.9238C10 29.9271 10 29.9303 10 29.9336C10 29.9368 10 29.9401 10 29.9434C10 29.9466 10 29.9499 10 29.9531C10 29.9564 10 29.9596 10 29.9629C10 29.9661 10 29.9694 10 29.9727C10 29.9759 10 29.9792 10 29.9824C10 29.9857 10 29.9889 10 29.9922C10 29.9954 10 29.9987 10 30.002C10 30.0052 10 30.0085 10 30.0117C10 30.015 10 30.0182 10 30.0215C10 30.0247 10 30.028 10 30.0313C10 30.0345 10 30.0378 10 30.041C10 30.0443 10 30.0475 10 30.0508C10 30.054 10 30.0573 10 30.0605C10 30.0638 10 30.0671 10 30.0703C10 30.0736 10 30.0768 10 30.0801C10 30.0833 10 30.0866 10 30.0898C10 30.0931 10 30.0964 10 30.0996C10 30.1029 10 30.1061 10 30.1094C10 30.1126 10 30.1159 10 30.1191C10 30.1224 10 30.1257 10 30.1289C10 30.1322 10 30.1354 10 30.1387C10 30.1419 10 30.1452 10 30.1484C10 30.1517 10 30.1549 10 30.1582C10 30.1615 10 30.1647 10 30.168C10 30.1712 10 30.1745 10 30.1777C10 30.181 10 30.1842 10 30.1875C10 30.1908 10 30.194 10 30.1973C10 30.2005 10 30.2038 10 30.207C10 30.2103 10 30.2135 10 30.2168C10 30.2201 10 30.2233 10 30.2266C10 30.2298 10 30.2331 10 30.2363C10 30.2396 10 30.2428 10 30.2461C10 30.2493 10 30.2526 10 30.2559C10 30.2591 10 30.2624 10 30.2656C10 30.2689 10 30.2721 10 30.2754C10 30.2786 10 30.2819 10 30.2852C10 30.2884 10 30.2917 10 30.2949C10 30.2982 10 30.3014 10 30.3047C10 30.3079 10 30.3112 10 30.3145C10 30.3177 10 30.321 10 30.3242C10 30.3275 10 30.3307 10 30.334C10 30.3372 10 30.3405 10 30.3438C10 30.347 10 30.3503 10 30.3535C10 30.3568 10 30.36 10 30.3633C10 30.3665 10 30.3698 10 30.373C10 30.3763 10 30.3796 10 30.3828C10 30.3861 10 30.3893 10 30.3926C10 30.3958 10 30.3991 10 30.4023C10 30.4056 10 30.4089 10 30.4121C10 30.4154 10 30.4186 10 30.4219C10 30.4251 10 30.4284 10 30.4316C10 30.4349 10 30.4382 10 30.4414C10 30.4447 10 30.4479 10 30.4512C10 30.4544 10 30.4577 10 30.4609C10 30.4642 10 30.4674 10 30.4707C10 30.474 10 30.4772 10 30.4805C10 30.4837 10 30.487 10 30.4902C10 30.4935 10 30.4967 10 30.5C10 30.5033 10 30.5065 10 30.5098C10 30.513 10 30.5163 10 30.5195C10 30.5228 10 30.526 10 30.5293C10 30.5326 10 30.5358 10 30.5391C10 30.5423 10 30.5456 10 30.5488C10 30.5521 10 30.5553 10 30.5586C10 30.5618 10 30.5651 10 30.5684C10 30.5716 10 30.5749 10 30.5781C10 30.5814 10 30.5846 10 30.5879C10 30.5911 10 30.5944 10 30.5977C10 30.6009 10 30.6042 10 30.6074C10 30.6107 10 30.6139 10 30.6172C10 30.6204 10 30.6237 10 30.627C10 30.6302 10 30.6335 10 30.6367C10 30.64 10 30.6432 10 30.6465C10 30.6497 10 30.653 10 30.6562C10 30.6595 10 30.6628 10 30.666C10 30.6693 10 30.6725 10 30.6758C10 30.679 10 30.6823 10 30.6855C10 30.6888 10 30.6921 10 30.6953C10 30.6986 10 30.7018 10 30.7051C10 30.7083 10 30.7116 10 30.7148C10 30.7181 10 30.7214 10 30.7246C10 30.7279 10 30.7311 10 30.7344C10 30.7376 10 30.7409 10 30.7441C10 30.7474 10 30.7507 10 30.7539C10 30.7572 10 30.7604 10 30.7637C10 30.7669 10 30.7702 10 30.7734C10 30.7767 10 30.7799 10 30.7832C10 30.7865 10 30.7897 10 30.793C10 30.7962 10 30.7995 10 30.8027C10 30.806 10 30.8092 10 30.8125C10 30.8158 10 30.819 10 30.8223C10 30.8255 10 30.8288 10 30.832C10 30.8353 10 30.8385 10 30.8418C10 30.8451 10 30.8483 10 30.8516C10 30.8548 10 30.8581 10 30.8613C10 30.8646 10 30.8678 10 30.8711C10 30.8743 10 30.8776 10 30.8809C10 30.8841 10 30.8874 10 30.8906C10 30.8939 10 30.8971 10 30.9004C10 30.9036 10 30.9069 10 30.9102C10 30.9134 10 30.9167 10 30.9199C10 30.9232 10 30.9264 10 30.9297C10 30.9329 10 30.9362 10 30.9395C10 30.9427 10 30.946 10 30.9492C10 30.9525 10 30.9557 10 30.959C10 30.9622 10 30.9655 10 30.9687C10 30.972 10 30.9753 10 30.9785C10 30.9818 10 30.985 10 30.9883C10 30.9915 10 30.9948 10 30.998C10 31.0013 10 31.0046 10 31.0078C10 31.0111 10 31.0143 10 31.0176C10 31.0208 10 31.0241 10 31.0273C10 31.0306 10 31.0339 10 31.0371C10 31.0404 10 31.0436 10 31.0469C10 31.0501 10 31.0534 10 31.0566C10 31.0599 10 31.0632 10 31.0664C10 31.0697 10 31.0729 10 31.0762C10 31.0794 10 31.0827 10 31.0859C10 31.0892 10 31.0924 10 31.0957C10 31.099 10 31.1022 10 31.1055C10 31.1087 10 31.112 10 31.1152C10 31.1185 10 31.1217 10 31.125C10 31.1283 10 31.1315 10 31.1348C10 31.138 10 31.1413 10 31.1445C10 31.1478 10 31.151 10 31.1543C10 31.1576 10 31.1608 10 31.1641C10 31.1673 10 31.1706 10 31.1738C10 31.1771 10 31.1803 10 31.1836C10 31.1868 10 31.1901 10 31.1934C10 31.1966 10 31.1999 10 31.2031C10 31.2064 10 31.2096 10 31.2129C10 31.2161 10 31.2194 10 31.2227C10 31.2259 10 31.2292 10 31.2324C10 31.2357 10 31.2389 10 31.2422C10 31.2454 10 31.2487 10 31.252C10 31.2552 10 31.2585 10 31.2617C10 31.265 10 31.2682 10 31.2715C10 31.2747 10 31.278 10 31.2812C10 31.2845 10 31.2878 10 31.291C10 31.2943 10 31.2975 10 31.3008C10 31.304 10 31.3073 10 31.3105C10 31.3138 10 31.3171 10 31.3203C10 31.3236 10 31.3268 10 31.3301C10 31.3333 10 31.3366 10 31.3398C10 31.3431 10 31.3464 10 31.3496C10 31.3529 10 31.3561 10 31.3594C10 31.3626 10 31.3659 10 31.3691C10 31.3724 10 31.3757 10 31.3789C10 31.3822 10 31.3854 10 31.3887C10 31.3919 10 31.3952 10 31.3984C10 31.4017 10 31.4049 10 31.4082C10 31.4115 10 31.4147 10 31.418C10 31.4212 10 31.4245 10 31.4277C10 31.431 10 31.4342 10 31.4375C10 31.4408 10 31.444 10 31.4473C10 31.4505 10 31.4538 10 31.457C10 31.4603 10 31.4635 10 31.4668C10 31.4701 10 31.4733 10 31.4766C10 31.4798 10 31.4831 10 31.4863C10 31.4896 10 31.4928 10 31.4961C10 31.4993 10 31.5026 10 31.5059C10 31.5091 10 31.5124 10 31.5156C10 31.5189 10 31.5221 10 31.5254C10 31.5286 10 31.5319 10 31.5352C10 31.5384 10 31.5417 10 31.5449C10 31.5482 10 31.5514 10 31.5547C10 31.5579 10 31.5612 10 31.5645C10 31.5677 10 31.571 10 31.5742C10 31.5775 10 31.5807 10 31.584C10 31.5872 10 31.5905 10 31.5937C10 31.597 10 31.6003 10 31.6035C10 31.6068 10 31.61 10 31.6133C10 31.6165 10 31.6198 10 31.623C10 31.6263 10 31.6296 10 31.6328C10 31.6361 10 31.6393 10 31.6426C10 31.6458 10 31.6491 10 31.6523C10 31.6556 10 31.6589 10 31.6621C10 31.6654 10 31.6686 10 31.6719C10 31.6751 10 31.6784 10 31.6816C10 31.6849 10 31.6882 10 31.6914C10 31.6947 10 31.6979 10 31.7012C10 31.7044 10 31.7077 10 31.7109C10 31.7142 10 31.7174 10 31.7207C10 31.724 10 31.7272 10 31.7305C10 31.7337 10 31.737 10 31.7402C10 31.7435 10 31.7467 10 31.75C10 31.7533 10 31.7565 10 31.7598C10 31.763 10 31.7663 10 31.7695C10 31.7728 10 31.776 10 31.7793C10 31.7826 10 31.7858 10 31.7891C10 31.7923 10 31.7956 10 31.7988C10 31.8021 10 31.8053 10 31.8086C10 31.8118 10 31.8151 10 31.8184C10 31.8216 10 31.8249 10 31.8281C10 31.8314 10 31.8346 10 31.8379C10 31.8411 10 31.8444 10 31.8477C10 31.8509 10 31.8542 10 31.8574C10 31.8607 10 31.8639 10 31.8672C10 31.8704 10 31.8737 10 31.877C10 31.8802 10 31.8835 10 31.8867C10 31.89 10 31.8932 10 31.8965C10 31.8997 10 31.903 10 31.9062C10 31.9095 10 31.9128 10 31.916C10 31.9193 10 31.9225 10 31.9258C10 31.929 10 31.9323 10 31.9355C10 31.9388 10 31.9421 10 31.9453C10 31.9486 10 31.9518 10 31.9551C10 31.9583 10 31.9616 10 31.9648C10 31.9681 10 31.9714 10 31.9746C10 31.9779 10 31.9811 10 31.9844C10 31.9876 10 31.9909 10 31.9941C10 31.9974 10 32.0007 10 32.0039C10 32.0072 10 32.0104 10 32.0137C10 32.0169 10 32.0202 10 32.0234C10 32.0267 10 32.0299 10 32.0332C10 32.0365 10 32.0397 10 32.043C10 32.0462 10 32.0495 10 32.0527C10 32.056 10 32.0592 10 32.0625C10 32.0658 10 32.069 10 32.0723C10 32.0755 10 32.0788 10 32.082C10 32.0853 10 32.0885 10 32.0918C10 32.0951 10 32.0983 10 32.1016C10 32.1048 10 32.1081 10 32.1113C10 32.1146 10 32.1178 10 32.1211C10 32.1243 10 32.1276 10 32.1309C10 32.1341 10 32.1374 10 32.1406C10 32.1439 10 32.1471 10 32.1504C10 32.1536 10 32.1569 10 32.1602C10 32.1634 10 32.1667 10 32.1699C10 32.1732 10 32.1764 10 32.1797C10 32.1829 10 32.1862 10 32.1895C10 32.1927 10 32.196 10 32.1992C10 32.2025 10 32.2057 10 32.209C10 32.2122 10 32.2155 10 32.2187C10 32.222 10 32.2253 10 32.2285C10 32.2318 10 32.235 10 32.2383C10 32.2415 10 32.2448 10 32.248C10 32.2513 10 32.2546 10 32.2578C10 32.2611 10 32.2643 10 32.2676C10 32.2708 10 32.2741 10 32.2773C10 32.2806 10 32.2839 10 32.2871C10 32.2904 10 32.2936 10 32.2969C10 32.3001 10 32.3034 10 32.3066C10 32.3099 10 32.3132 10 32.3164C10 32.3197 10 32.3229 10 32.3262C10 32.3294 10 32.3327 10 32.3359C10 32.3392 10 32.3424 10 32.3457C10 32.349 10 32.3522 10 32.3555C10 32.3587 10 32.362 10 32.3652C10 32.3685 10 32.3717 10 32.375C10 32.3783 10 32.3815 10 32.3848C10 32.388 10 32.3913 10 32.3945C10 32.3978 10 32.401 10 32.4043C10 32.4076 10 32.4108 10 32.4141C10 32.4173 10 32.4206 10 32.4238C10 32.4271 10 32.4303 10 32.4336C10 32.4368 10 32.4401 10 32.4434C10 32.4466 10 32.4499 10 32.4531C10 32.4564 10 32.4596 10 32.4629C10 32.4661 10 32.4694 10 32.4727C10 32.4759 10 32.4792 10 32.4824C10 32.4857 10 32.4889 10 32.4922C10 32.4954 10 32.4987 10 32.502C10 32.5052 10 32.5085 10 32.5117C10 32.515 10 32.5182 10 32.5215C10 32.5247 10 32.528 10 32.5312C10 32.5345 10 32.5378 10 32.541C10 32.5443 10 32.5475 10 32.5508C10 32.554 10 32.5573 10 32.5605C10 32.5638 10 32.5671 10 32.5703C10 32.5736 10 32.5768 10 32.5801C10 32.5833 10 32.5866 10 32.5898C10 32.5931 10 32.5964 10 32.5996C10 32.6029 10 32.6061 10 32.6094C10 32.6126 10 32.6159 10 32.6191C10 32.6224 10 32.6257 10 32.6289C10 32.6322 10 32.6354 10 32.6387C10 32.6419 10 32.6452 10 32.6484C10 32.6517 10 32.6549 10 32.6582C10 32.6615 10 32.6647 10 32.668C10 32.6712 10 32.6745 10 32.6777C10 32.681 10 32.6842 10 32.6875C10 32.6908 10 32.694 10 32.6973C10 32.7005 10 32.7038 10 32.707C10 32.7103 10 32.7135 10 32.7168C10 32.7201 10 32.7233 10 32.7266C10 32.7298 10 32.7331 10 32.7363C10 32.7396 10 32.7428 10 32.7461C10 32.7493 10 32.7526 10 32.7559C10 32.7591 10 32.7624 10 32.7656C10 32.7689 10 32.7721 10 32.7754C10 32.7786 10 32.7819 10 32.7852C10 32.7884 10 32.7917 10 32.7949C10 32.7982 10 32.8014 10 32.8047C10 32.8079 10 32.8112 10 32.8145C10 32.8177 10 32.821 10 32.8242C10 32.8275 10 32.8307 10 32.834C10 32.8372 10 32.8405 10 32.8437C10 32.847 10 32.8503 10 32.8535C10 32.8568 10 32.86 10 32.8633C10 32.8665 10 32.8698 10 32.873C10 32.8763 10 32.8796 10 32.8828C10 32.8861 10 32.8893 10 32.8926C10 32.8958 10 32.8991 10 32.9023C10 32.9056 10 32.9089 10 32.9121C10 32.9154 10 32.9186 10 32.9219C10 32.9251 10 32.9284 10 32.9316C10 32.9349 10 32.9382 10 32.9414C10 32.9447 10 32.9479 10 32.9512C10 32.9544 10 32.9577 10 32.9609C10 32.9642 10 32.9674 10 32.9707C10 32.974 10 32.9772 10 32.9805C10 32.9837 10 32.987 10 32.9902C10 32.9935 10 32.9967 10 33H12ZM12 28C12 26.3431 13.3431 25 15 25V23C12.2386 23 10 25.2386 10 28H12ZM15 25H47V23H15V25ZM47 25C48.6569 25 50 26.3431 50 28H52C52 25.2386 49.7614 23 47 23V25ZM50 28V36H52V28H50ZM42.0473 50C42.0385 50 42.0298 50 42.021 50C42.0123 50 42.0035 50 41.9948 50C41.986 50 41.9773 50 41.9685 50C41.9598 50 41.951 50 41.9423 50C41.9335 50 41.9248 50 41.9161 50C41.9073 50 41.8986 50 41.8898 50C41.8811 50 41.8723 50 41.8636 50C41.8549 50 41.8461 50 41.8374 50C41.8286 50 41.8199 50 41.8112 50C41.8024 50 41.7937 50 41.785 50C41.7762 50 41.7675 50 41.7588 50C41.75 50 41.7413 50 41.7325 50C41.7238 50 41.7151 50 41.7064 50C41.6976 50 41.6889 50 41.6802 50C41.6714 50 41.6627 50 41.654 50C41.6452 50 41.6365 50 41.6278 50C41.6191 50 41.6103 50 41.6016 50C41.5929 50 41.5842 50 41.5754 50C41.5667 50 41.558 50 41.5493 50C41.5406 50 41.5318 50 41.5231 50C41.5144 50 41.5057 50 41.497 50C41.4882 50 41.4795 50 41.4708 50C41.4621 50 41.4534 50 41.4447 50C41.4359 50 41.4272 50 41.4185 50C41.4098 50 41.4011 50 41.3924 50C41.3837 50 41.3749 50 41.3662 50C41.3575 50 41.3488 50 41.3401 50C41.3314 50 41.3227 50 41.314 50C41.3053 50 41.2966 50 41.2879 50C41.2792 50 41.2705 50 41.2618 50C41.2531 50 41.2444 50 41.2357 50C41.2269 50 41.2182 50 41.2095 50C41.2008 50 41.1922 50 41.1835 50C41.1748 50 41.1661 50 41.1574 50C41.1487 50 41.14 50 41.1313 50C41.1226 50 41.1139 50 41.1052 50C41.0965 50 41.0878 50 41.0791 50C41.0704 50 41.0617 50 41.0531 50C41.0444 50 41.0357 50 41.027 50C41.0183 50 41.0096 50 41.0009 50C40.9923 50 40.9836 50 40.9749 50C40.9662 50 40.9575 50 40.9488 50C40.9402 50 40.9315 50 40.9228 50C40.9141 50 40.9054 50 40.8968 50C40.8881 50 40.8794 50 40.8707 50C40.8621 50 40.8534 50 40.8447 50C40.836 50 40.8274 50 40.8187 50C40.81 50 40.8014 50 40.7927 50C40.784 50 40.7754 50 40.7667 50C40.758 50 40.7493 50 40.7407 50C40.732 50 40.7234 50 40.7147 50C40.706 50 40.6974 50 40.6887 50C40.68 50 40.6714 50 40.6627 50C40.6541 50 40.6454 50 40.6368 50C40.6281 50 40.6194 50 40.6108 50C40.6021 50 40.5935 50 40.5848 50C40.5762 50 40.5675 50 40.5589 50C40.5502 50 40.5416 50 40.5329 50C40.5243 50 40.5156 50 40.507 50C40.4983 50 40.4897 50 40.481 50C40.4724 50 40.4638 50 40.4551 50C40.4465 50 40.4378 50 40.4292 50C40.4205 50 40.4119 50 40.4033 50C40.3946 50 40.386 50 40.3774 50C40.3687 50 40.3601 50 40.3515 50C40.3428 50 40.3342 50 40.3256 50C40.3169 50 40.3083 50 40.2997 50C40.291 50 40.2824 50 40.2738 50C40.2652 50 40.2565 50 40.2479 50C40.2393 50 40.2307 50 40.222 50C40.2134 50 40.2048 50 40.1962 50C40.1876 50 40.1789 50 40.1703 50C40.1617 50 40.1531 50 40.1445 50C40.1359 50 40.1272 50 40.1186 50C40.11 50 40.1014 50 40.0928 50C40.0842 50 40.0756 50 40.067 50C40.0584 50 40.0498 50 40.0411 50C40.0325 50 40.0239 50 40.0153 50C40.0067 50 39.9981 50 39.9895 50C39.9809 50 39.9723 50 39.9637 50C39.9551 50 39.9465 50 39.9379 50C39.9293 50 39.9207 50 39.9121 50C39.9036 50 39.895 50 39.8864 50C39.8778 50 39.8692 50 39.8606 50C39.852 50 39.8434 50 39.8348 50C39.8262 50 39.8177 50 39.8091 50C39.8005 50 39.7919 50 39.7833 50C39.7747 50 39.7662 50 39.7576 50C39.749 50 39.7404 50 39.7319 50C39.7233 50 39.7147 50 39.7061 50C39.6976 50 39.689 50 39.6804 50C39.6718 50 39.6633 50 39.6547 50C39.6461 50 39.6376 50 39.629 50C39.6204 50 39.6119 50 39.6033 50C39.5947 50 39.5862 50 39.5776 50C39.5691 50 39.5605 50 39.5519 50C39.5434 50 39.5348 50 39.5263 50C39.5177 50 39.5092 50 39.5006 50C39.492 50 39.4835 50 39.4749 50C39.4664 50 39.4578 50 39.4493 50C39.4407 50 39.4322 50 39.4237 50C39.4151 50 39.4066 50 39.398 50C39.3895 50 39.3809 50 39.3724 50C39.3639 50 39.3553 50 39.3468 50C39.3382 50 39.3297 50 39.3212 50C39.3126 50 39.3041 50 39.2956 50C39.287 50 39.2785 50 39.27 50C39.2615 50 39.2529 50 39.2444 50C39.2359 50 39.2273 50 39.2188 50C39.2103 50 39.2018 50 39.1933 50C39.1847 50 39.1762 50 39.1677 50C39.1592 50 39.1507 50 39.1421 50C39.1336 50 39.1251 50 39.1166 50C39.1081 50 39.0996 50 39.0911 50C39.0826 50 39.0741 50 39.0655 50C39.057 50 39.0485 50 39.04 50C39.0315 50 39.023 50 39.0145 50C39.006 50 38.9975 50 38.989 50C38.9805 50 38.972 50 38.9635 50C38.955 50 38.9465 50 38.938 50C38.9296 50 38.9211 50 38.9126 50C38.9041 50 38.8956 50 38.8871 50C38.8786 50 38.8701 50 38.8617 50C38.8532 50 38.8447 50 38.8362 50C38.8277 50 38.8192 50 38.8108 50C38.8023 50 38.7938 50 38.7853 50C38.7769 50 38.7684 50 38.7599 50C38.7514 50 38.743 50 38.7345 50C38.726 50 38.7176 50 38.7091 50C38.7006 50 38.6922 50 38.6837 50C38.6753 50 38.6668 50 38.6583 50C38.6499 50 38.6414 50 38.633 50C38.6245 50 38.616 50 38.6076 50C38.5991 50 38.5907 50 38.5822 50C38.5738 50 38.5653 50 38.5569 50C38.5484 50 38.54 50 38.5315 50C38.5231 50 38.5147 50 38.5062 50C38.4978 50 38.4893 50 38.4809 50C38.4725 50 38.464 50 38.4556 50C38.4472 50 38.4387 50 38.4303 50C38.4219 50 38.4134 50 38.405 50C38.3966 50 38.3881 50 38.3797 50C38.3713 50 38.3629 50 38.3544 50C38.346 50 38.3376 50 38.3292 50C38.3208 50 38.3123 50 38.3039 50C38.2955 50 38.2871 50 38.2787 50C38.2703 50 38.2619 50 38.2535 50C38.245 50 38.2366 50 38.2282 50C38.2198 50 38.2114 50 38.203 50C38.1946 50 38.1862 50 38.1778 50C38.1694 50 38.161 50 38.1526 50C38.1442 50 38.1358 50 38.1274 50C38.119 50 38.1106 50 38.1023 50C38.0939 50 38.0855 50 38.0771 50C38.0687 50 38.0603 50 38.0519 50C38.0436 50 38.0352 50 38.0268 50C38.0184 50 38.01 50 38.0017 50C37.9933 50 37.9849 50 37.9765 50C37.9682 50 37.9598 50 37.9514 50C37.9431 50 37.9347 50 37.9263 50C37.918 50 37.9096 50 37.9012 50C37.8929 50 37.8845 50 37.8761 50C37.8678 50 37.8594 50 37.8511 50C37.8427 50 37.8344 50 37.826 50C37.8177 50 37.8093 50 37.801 50C37.7926 50 37.7843 50 37.7759 50C37.7676 50 37.7592 50 37.7509 50C37.7425 50 37.7342 50 37.7259 50C37.7175 50 37.7092 50 37.7009 50C37.6925 50 37.6842 50 37.6759 50C37.6675 50 37.6592 50 37.6509 50C37.6425 50 37.6342 50 37.6259 50C37.6176 50 37.6092 50 37.6009 50C37.5926 50 37.5843 50 37.576 50C37.5676 50 37.5593 50 37.551 50C37.5427 50 37.5344 50 37.5261 50C37.5178 50 37.5095 50 37.5012 50C37.4928 50 37.4845 50 37.4762 50C37.4679 50 37.4596 50 37.4513 50C37.443 50 37.4347 50 37.4264 50C37.4181 50 37.4099 50 37.4016 50C37.3933 50 37.385 50 37.3767 50C37.3684 50 37.3601 50 37.3518 50C37.3435 50 37.3353 50 37.327 50C37.3187 50 37.3104 50 37.3021 50C37.2939 50 37.2856 50 37.2773 50C37.269 50 37.2608 50 37.2525 50C37.2442 50 37.236 50 37.2277 50C37.2194 50 37.2112 50 37.2029 50C37.1947 50 37.1864 50 37.1781 50C37.1699 50 37.1616 50 37.1534 50C37.1451 50 37.1369 50 37.1286 50C37.1204 50 37.1121 50 37.1039 50C37.0956 50 37.0874 50 37.0791 50C37.0709 50 37.0626 50 37.0544 50C37.0462 50 37.0379 50 37.0297 50C37.0215 50 37.0132 50 37.005 50C36.9968 50 36.9885 50 36.9803 50C36.9721 50 36.9638 50 36.9556 50C36.9474 50 36.9392 50 36.931 50C36.9227 50 36.9145 50 36.9063 50C36.8981 50 36.8899 50 36.8817 50C36.8735 50 36.8652 50 36.857 50C36.8488 50 36.8406 50 36.8324 50C36.8242 50 36.816 50 36.8078 50C36.7996 50 36.7914 50 36.7832 50C36.775 50 36.7668 50 36.7586 50C36.7504 50 36.7423 50 36.7341 50C36.7259 50 36.7177 50 36.7095 50C36.7013 50 36.6931 50 36.685 50C36.6768 50 36.6686 50 36.6604 50C36.6523 50 36.6441 50 36.6359 50C36.6277 50 36.6196 50 36.6114 50C36.6032 50 36.5951 50 36.5869 50C36.5787 50 36.5706 50 36.5624 50C36.5543 50 36.5461 50 36.5379 50C36.5298 50 36.5216 50 36.5135 50C36.5053 50 36.4972 50 36.489 50C36.4809 50 36.4727 50 36.4646 50C36.4565 50 36.4483 50 36.4402 50C36.432 50 36.4239 50 36.4158 50C36.4076 50 36.3995 50 36.3914 50C36.3832 50 36.3751 50 36.367 50C36.3589 50 36.3507 50 36.3426 50C36.3345 50 36.3264 50 36.3182 50C36.3101 50 36.302 50 36.2939 50C36.2858 50 36.2777 50 36.2696 50C36.2615 50 36.2533 50 36.2452 50C36.2371 50 36.229 50 36.2209 50C36.2128 50 36.2047 50 36.1966 50C36.1885 50 36.1804 50 36.1724 50C36.1643 50 36.1562 50 36.1481 50C36.14 50 36.1319 50 36.1238 50C36.1157 50 36.1077 50 36.0996 50C36.0915 50 36.0834 50 36.0753 50C36.0673 50 36.0592 50 36.0511 50C36.0431 50 36.035 50 36.0269 50C36.0189 50 36.0108 50 36.0027 50C35.9947 50 35.9866 50 35.9786 50C35.9705 50 35.9624 50 35.9544 50C35.9463 50 35.9383 50 35.9302 50C35.9222 50 35.9141 50 35.9061 50C35.898 50 35.89 50 35.882 50C35.8739 50 35.8659 50 35.8579 50C35.8498 50 35.8418 50 35.8338 50C35.8257 50 35.8177 50 35.8097 50C35.8016 50 35.7936 50 35.7856 50C35.7776 50 35.7696 50 35.7615 50C35.7535 50 35.7455 50 35.7375 50C35.7295 50 35.7215 50 35.7135 50C35.7055 50 35.6974 50 35.6894 50C35.6814 50 35.6734 50 35.6654 50C35.6574 50 35.6494 50 35.6414 50C35.6335 50 35.6255 50 35.6175 50C35.6095 50 35.6015 50 35.5935 50C35.5855 50 35.5775 50 35.5696 50C35.5616 50 35.5536 50 35.5456 50C35.5376 50 35.5297 50 35.5217 50C35.5137 50 35.5058 50 35.4978 50C35.4898 50 35.4819 50 35.4739 50C35.4659 50 35.458 50 35.45 50C35.4421 50 35.4341 50 35.4262 50C35.4182 50 35.4103 50 35.4023 50C35.3944 50 35.3864 50 35.3785 50C35.3705 50 35.3626 50 35.3546 50C35.3467 50 35.3388 50 35.3308 50C35.3229 50 35.315 50 35.307 50C35.2991 50 35.2912 50 35.2833 50C35.2753 50 35.2674 50 35.2595 50C35.2516 50 35.2437 50 35.2357 50C35.2278 50 35.2199 50 35.212 50C35.2041 50 35.1962 50 35.1883 50C35.1804 50 35.1725 50 35.1646 50C35.1567 50 35.1488 50 35.1409 50C35.133 50 35.1251 50 35.1172 50C35.1093 50 35.1014 50 35.0935 50C35.0856 50 35.0778 50 35.0699 50C35.062 50 35.0541 50 35.0462 50C35.0384 50 35.0305 50 35.0226 50C35.0148 50 35.0069 50 34.999 50C34.9912 50 34.9833 50 34.9754 50C34.9676 50 34.9597 50 34.9518 50C34.944 50 34.9361 50 34.9283 50C34.9204 50 34.9126 50 34.9047 50C34.8969 50 34.889 50 34.8812 50C34.8734 50 34.8655 50 34.8577 50C34.8499 50 34.842 50 34.8342 50C34.8264 50 34.8185 50 34.8107 50C34.8029 50 34.795 50 34.7872 50C34.7794 50 34.7716 50 34.7638 50C34.756 50 34.7481 50 34.7403 50C34.7325 50 34.7247 50 34.7169 50C34.7091 50 34.7013 50 34.6935 50C34.6857 50 34.6779 50 34.6701 50C34.6623 50 34.6545 50 34.6467 50C34.6389 50 34.6311 50 34.6233 50C34.6156 50 34.6078 50 34.6 50C34.5922 50 34.5844 50 34.5767 50C34.5689 50 34.5611 50 34.5533 50C34.5456 50 34.5378 50 34.53 50C34.5223 50 34.5145 50 34.5068 50C34.499 50 34.4912 50 34.4835 50C34.4757 50 34.468 50 34.4602 50C34.4525 50 34.4447 50 34.437 50C34.4292 50 34.4215 50 34.4138 50C34.406 50 34.3983 50 34.3905 50C34.3828 50 34.3751 50 34.3673 50C34.3596 50 34.3519 50 34.3442 50C34.3364 50 34.3287 50 34.321 50C34.3133 50 34.3056 50 34.2979 50C34.2901 50 34.2824 50 34.2747 50C34.267 50 34.2593 50 34.2516 50C34.2439 50 34.2362 50 34.2285 50C34.2208 50 34.2131 50 34.2054 50C34.1977 50 34.1901 50 34.1824 50C34.1747 50 34.167 50 34.1593 50C34.1516 50 34.144 50 34.1363 50C34.1286 50 34.1209 50 34.1133 50C34.1056 50 34.0979 50 34.0903 50C34.0826 50 34.0749 50 34.0673 50C34.0596 50 34.052 50 34.0443 50C34.0366 50 34.029 50 34.0213 50C34.0137 50 34.0061 50 33.9984 50C33.9908 50 33.9831 50 33.9755 50C33.9678 50 33.9602 50 33.9526 50C33.945 50 33.9373 50 33.9297 50C33.9221 50 33.9144 50 33.9068 50C33.8992 50 33.8916 50 33.884 50C33.8764 50 33.8687 50 33.8611 50C33.8535 50 33.8459 50 33.8383 50C33.8307 50 33.8231 50 33.8155 50C33.8079 50 33.8003 50 33.7927 50C33.7851 50 33.7775 50 33.7699 50C33.7624 50 33.7548 50 33.7472 50C33.7396 50 33.732 50 33.7244 50C33.7169 50 33.7093 50 33.7017 50C33.6942 50 33.6866 50 33.679 50C33.6715 50 33.6639 50 33.6563 50C33.6488 50 33.6412 50 33.6337 50C33.6261 50 33.6186 50 33.611 50C33.6035 50 33.5959 50 33.5884 50C33.5808 50 33.5733 50 33.5658 50C33.5582 50 33.5507 50 33.5432 50C33.5356 50 33.5281 50 33.5206 50C33.513 50 33.5055 50 33.498 50C33.4905 50 33.483 50 33.4754 50C33.4679 50 33.4604 50 33.4529 50C33.4454 50 33.4379 50 33.4304 50C33.4229 50 33.4154 50 33.4079 50C33.4004 50 33.3929 50 33.3854 50C33.3779 50 33.3704 50 33.363 50C33.3555 50 33.348 50 33.3405 50C33.333 50 33.3255 50 33.3181 50C33.3106 50 33.3031 50 33.2957 50C33.2882 50 33.2807 50 33.2733 50C33.2658 50 33.2583 50 33.2509 50C33.2434 50 33.236 50 33.2285 50C33.2211 50 33.2136 50 33.2062 50C33.1987 50 33.1913 50 33.1839 50C33.1764 50 33.169 50 33.1616 50C33.1541 50 33.1467 50 33.1393 50C33.1318 50 33.1244 50 33.117 50C33.1096 50 33.1022 50 33.0948 50C33.0873 50 33.0799 50 33.0725 50C33.0651 50 33.0577 50 33.0503 50C33.0429 50 33.0355 50 33.0281 50C33.0207 50 33.0133 50 33.0059 50C32.9985 50 32.9911 50 32.9838 50C32.9764 50 32.969 50 32.9616 50C32.9542 50 32.9469 50 32.9395 50C32.9321 50 32.9247 50 32.9174 50C32.91 50 32.9027 50 32.8953 50C32.8879 50 32.8806 50 32.8732 50C32.8659 50 32.8585 50 32.8512 50C32.8438 50 32.8365 50 32.8291 50C32.8218 50 32.8144 50 32.8071 50C32.7998 50 32.7924 50 32.7851 50C32.7778 50 32.7705 50 32.7631 50C32.7558 50 32.7485 50 32.7412 50C32.7339 50 32.7265 50 32.7192 50C32.7119 50 32.7046 50 32.6973 50C32.69 50 32.6827 50 32.6754 50C32.6681 50 32.6608 50 32.6535 50C32.6462 50 32.6389 50 32.6316 50C32.6244 50 32.6171 50 32.6098 50C32.6025 50 32.5952 50 32.588 50C32.5807 50 32.5734 50 32.5662 50C32.5589 50 32.5516 50 32.5444 50C32.5371 50 32.5298 50 32.5226 50C32.5153 50 32.5081 50 32.5008 50C32.4936 50 32.4863 50 32.4791 50C32.4718 50 32.4646 50 32.4574 50C32.4501 50 32.4429 50 32.4357 50C32.4284 50 32.4212 50 32.414 50C32.4068 50 32.3995 50 32.3923 50C32.3851 50 32.3779 50 32.3707 50C32.3635 50 32.3563 50 32.3491 50C32.3419 50 32.3347 50 32.3275 50C32.3203 50 32.3131 50 32.3059 50C32.2987 50 32.2915 50 32.2843 50C32.2771 50 32.2699 50 32.2628 50C32.2556 50 32.2484 50 32.2412 50C32.2341 50 32.2269 50 32.2197 50C32.2126 50 32.2054 50 32.1982 50C32.1911 50 32.1839 50 32.1768 50C32.1696 50 32.1625 50 32.1553 50C32.1482 50 32.141 50 32.1339 50C32.1268 50 32.1196 50 32.1125 50C32.1054 50 32.0982 50 32.0911 50C32.084 50 32.0769 50 32.0697 50C32.0626 50 32.0555 50 32.0484 50C32.0413 50 32.0342 50 32.0271 50C32.0199 50 32.0128 50 32.0057 50C31.9986 50 31.9915 50 31.9844 50C31.9774 50 31.9703 50 31.9632 50C31.9561 50 31.949 50 31.9419 50C31.9348 50 31.9278 50 31.9207 50C31.9136 50 31.9065 50 31.8995 50C31.8924 50 31.8854 50 31.8783 50C31.8712 50 31.8642 50 31.8571 50C31.8501 50 31.843 50 31.836 50C31.8289 50 31.8219 50 31.8148 50C31.8078 50 31.8008 50 31.7937 50C31.7867 50 31.7797 50 31.7726 50C31.7656 50 31.7586 50 31.7516 50C31.7445 50 31.7375 50 31.7305 50C31.7235 50 31.7165 50 31.7095 50C31.7025 50 31.6955 50 31.6885 50C31.6815 50 31.6745 50 31.6675 50C31.6605 50 31.6535 50 31.6465 50C31.6395 50 31.6325 50 31.6256 50C31.6186 50 31.6116 50 31.6046 50C31.5977 50 31.5907 50 31.5837 50C31.5768 50 31.5698 50 31.5628 50C31.5559 50 31.5489 50 31.542 50C31.535 50 31.5281 50 31.5211 50C31.5142 50 31.5072 50 31.5003 50C31.4934 50 31.4864 50 31.4795 50C31.4726 50 31.4656 50 31.4587 50C31.4518 50 31.4449 50 31.4379 50C31.431 50 31.4241 50 31.4172 50C31.4103 50 31.4034 50 31.3965 50C31.3896 50 31.3827 50 31.3758 50C31.3689 50 31.362 50 31.3551 50C31.3482 50 31.3413 50 31.3344 50C31.3276 50 31.3207 50 31.3138 50C31.3069 50 31.3001 50 31.2932 50C31.2863 50 31.2794 50 31.2726 50C31.2657 50 31.2589 50 31.252 50C31.2452 50 31.2383 50 31.2315 50C31.2246 50 31.2178 50 31.2109 50C31.2041 50 31.1972 50 31.1904 50C31.1836 50 31.1767 50 31.1699 50C31.1631 50 31.1563 50 31.1495 50C31.1426 50 31.1358 50 31.129 50C31.1222 50 31.1154 50 31.1086 50C31.1018 50 31.095 50 31.0882 50C31.0814 50 31.0746 50 31.0678 50C31.061 50 31.0542 50 31.0474 50C31.0406 50 31.0339 50 31.0271 50C31.0203 50 31.0135 50 31.0068 50C31 50 30.9932 50 30.9865 50C30.9797 50 30.973 50 30.9662 50C30.9594 50 30.9527 50 30.9459 50C30.9392 50 30.9325 50 30.9257 50C30.919 50 30.9122 50 30.9055 50C30.8988 50 30.892 50 30.8853 50C30.8786 50 30.8719 50 30.8651 50C30.8584 50 30.8517 50 30.845 50C30.8383 50 30.8316 50 30.8249 50C30.8182 50 30.8115 50 30.8048 50C30.7981 50 30.7914 50 30.7847 50C30.778 50 30.7713 50 30.7646 50C30.758 50 30.7513 50 30.7446 50C30.7379 50 30.7313 50 30.7246 50C30.7179 50 30.7113 50 30.7046 50C30.6979 50 30.6913 50 30.6846 50C30.678 50 30.6713 50 30.6647 50C30.658 50 30.6514 50 30.6448 50C30.6381 50 30.6315 50 30.6249 50C30.6182 50 30.6116 50 30.605 50C30.5984 50 30.5917 50 30.5851 50C30.5785 50 30.5719 50 30.5653 50C30.5587 50 30.5521 50 30.5455 50C30.5389 50 30.5323 50 30.5257 50C30.5191 50 30.5125 50 30.5059 50C30.4993 50 30.4928 50 30.4862 50C30.4796 50 30.473 50 30.4665 50C30.4599 50 30.4533 50 30.4468 50C30.4402 50 30.4336 50 30.4271 50C30.4205 50 30.414 50 30.4074 50C30.4009 50 30.3943 50 30.3878 50C30.3813 50 30.3747 50 30.3682 50C30.3617 50 30.3551 50 30.3486 50C30.3421 50 30.3356 50 30.329 50C30.3225 50 30.316 50 30.3095 50C30.303 50 30.2965 50 30.29 50C30.2835 50 30.277 50 30.2705 50C30.264 50 30.2575 50 30.251 50C30.2445 50 30.238 50 30.2316 50C30.2251 50 30.2186 50 30.2121 50C30.2057 50 30.1992 50 30.1927 50C30.1863 50 30.1798 50 30.1734 50C30.1669 50 30.1605 50 30.154 50C30.1476 50 30.1411 50 30.1347 50C30.1282 50 30.1218 50 30.1154 50C30.1089 50 30.1025 50 30.0961 50C30.0897 50 30.0832 50 30.0768 50C30.0704 50 30.064 50 30.0576 50C30.0512 50 30.0448 50 30.0384 50C30.032 50 30.0256 50 30.0192 50C30.0128 50 30.0064 50 30 50V52C30.0064 52 30.0128 52 30.0192 52C30.0256 52 30.032 52 30.0384 52C30.0448 52 30.0512 52 30.0576 52C30.064 52 30.0704 52 30.0768 52C30.0832 52 30.0897 52 30.0961 52C30.1025 52 30.1089 52 30.1154 52C30.1218 52 30.1282 52 30.1347 52C30.1411 52 30.1476 52 30.154 52C30.1605 52 30.1669 52 30.1734 52C30.1798 52 30.1863 52 30.1927 52C30.1992 52 30.2057 52 30.2121 52C30.2186 52 30.2251 52 30.2316 52C30.238 52 30.2445 52 30.251 52C30.2575 52 30.264 52 30.2705 52C30.277 52 30.2835 52 30.29 52C30.2965 52 30.303 52 30.3095 52C30.316 52 30.3225 52 30.329 52C30.3356 52 30.3421 52 30.3486 52C30.3551 52 30.3617 52 30.3682 52C30.3747 52 30.3813 52 30.3878 52C30.3943 52 30.4009 52 30.4074 52C30.414 52 30.4205 52 30.4271 52C30.4336 52 30.4402 52 30.4468 52C30.4533 52 30.4599 52 30.4665 52C30.473 52 30.4796 52 30.4862 52C30.4928 52 30.4993 52 30.5059 52C30.5125 52 30.5191 52 30.5257 52C30.5323 52 30.5389 52 30.5455 52C30.5521 52 30.5587 52 30.5653 52C30.5719 52 30.5785 52 30.5851 52C30.5917 52 30.5984 52 30.605 52C30.6116 52 30.6182 52 30.6249 52C30.6315 52 30.6381 52 30.6448 52C30.6514 52 30.658 52 30.6647 52C30.6713 52 30.678 52 30.6846 52C30.6913 52 30.6979 52 30.7046 52C30.7113 52 30.7179 52 30.7246 52C30.7313 52 30.7379 52 30.7446 52C30.7513 52 30.758 52 30.7646 52C30.7713 52 30.778 52 30.7847 52C30.7914 52 30.7981 52 30.8048 52C30.8115 52 30.8182 52 30.8249 52C30.8316 52 30.8383 52 30.845 52C30.8517 52 30.8584 52 30.8651 52C30.8719 52 30.8786 52 30.8853 52C30.892 52 30.8988 52 30.9055 52C30.9122 52 30.919 52 30.9257 52C30.9325 52 30.9392 52 30.9459 52C30.9527 52 30.9594 52 30.9662 52C30.973 52 30.9797 52 30.9865 52C30.9932 52 31 52 31.0068 52C31.0135 52 31.0203 52 31.0271 52C31.0339 52 31.0406 52 31.0474 52C31.0542 52 31.061 52 31.0678 52C31.0746 52 31.0814 52 31.0882 52C31.095 52 31.1018 52 31.1086 52C31.1154 52 31.1222 52 31.129 52C31.1358 52 31.1426 52 31.1495 52C31.1563 52 31.1631 52 31.1699 52C31.1767 52 31.1836 52 31.1904 52C31.1972 52 31.2041 52 31.2109 52C31.2178 52 31.2246 52 31.2315 52C31.2383 52 31.2452 52 31.252 52C31.2589 52 31.2657 52 31.2726 52C31.2794 52 31.2863 52 31.2932 52C31.3001 52 31.3069 52 31.3138 52C31.3207 52 31.3276 52 31.3344 52C31.3413 52 31.3482 52 31.3551 52C31.362 52 31.3689 52 31.3758 52C31.3827 52 31.3896 52 31.3965 52C31.4034 52 31.4103 52 31.4172 52C31.4241 52 31.431 52 31.4379 52C31.4449 52 31.4518 52 31.4587 52C31.4656 52 31.4726 52 31.4795 52C31.4864 52 31.4934 52 31.5003 52C31.5072 52 31.5142 52 31.5211 52C31.5281 52 31.535 52 31.542 52C31.5489 52 31.5559 52 31.5628 52C31.5698 52 31.5768 52 31.5837 52C31.5907 52 31.5977 52 31.6046 52C31.6116 52 31.6186 52 31.6256 52C31.6325 52 31.6395 52 31.6465 52C31.6535 52 31.6605 52 31.6675 52C31.6745 52 31.6815 52 31.6885 52C31.6955 52 31.7025 52 31.7095 52C31.7165 52 31.7235 52 31.7305 52C31.7375 52 31.7445 52 31.7516 52C31.7586 52 31.7656 52 31.7726 52C31.7797 52 31.7867 52 31.7937 52C31.8008 52 31.8078 52 31.8148 52C31.8219 52 31.8289 52 31.836 52C31.843 52 31.8501 52 31.8571 52C31.8642 52 31.8712 52 31.8783 52C31.8854 52 31.8924 52 31.8995 52C31.9065 52 31.9136 52 31.9207 52C31.9278 52 31.9348 52 31.9419 52C31.949 52 31.9561 52 31.9632 52C31.9703 52 31.9774 52 31.9844 52C31.9915 52 31.9986 52 32.0057 52C32.0128 52 32.0199 52 32.0271 52C32.0342 52 32.0413 52 32.0484 52C32.0555 52 32.0626 52 32.0697 52C32.0769 52 32.084 52 32.0911 52C32.0982 52 32.1054 52 32.1125 52C32.1196 52 32.1268 52 32.1339 52C32.141 52 32.1482 52 32.1553 52C32.1625 52 32.1696 52 32.1768 52C32.1839 52 32.1911 52 32.1982 52C32.2054 52 32.2126 52 32.2197 52C32.2269 52 32.2341 52 32.2412 52C32.2484 52 32.2556 52 32.2628 52C32.2699 52 32.2771 52 32.2843 52C32.2915 52 32.2987 52 32.3059 52C32.3131 52 32.3203 52 32.3275 52C32.3347 52 32.3419 52 32.3491 52C32.3563 52 32.3635 52 32.3707 52C32.3779 52 32.3851 52 32.3923 52C32.3995 52 32.4068 52 32.414 52C32.4212 52 32.4284 52 32.4357 52C32.4429 52 32.4501 52 32.4574 52C32.4646 52 32.4718 52 32.4791 52C32.4863 52 32.4936 52 32.5008 52C32.5081 52 32.5153 52 32.5226 52C32.5298 52 32.5371 52 32.5444 52C32.5516 52 32.5589 52 32.5662 52C32.5734 52 32.5807 52 32.588 52C32.5952 52 32.6025 52 32.6098 52C32.6171 52 32.6244 52 32.6316 52C32.6389 52 32.6462 52 32.6535 52C32.6608 52 32.6681 52 32.6754 52C32.6827 52 32.69 52 32.6973 52C32.7046 52 32.7119 52 32.7192 52C32.7265 52 32.7339 52 32.7412 52C32.7485 52 32.7558 52 32.7631 52C32.7705 52 32.7778 52 32.7851 52C32.7924 52 32.7998 52 32.8071 52C32.8144 52 32.8218 52 32.8291 52C32.8365 52 32.8438 52 32.8512 52C32.8585 52 32.8659 52 32.8732 52C32.8806 52 32.8879 52 32.8953 52C32.9027 52 32.91 52 32.9174 52C32.9247 52 32.9321 52 32.9395 52C32.9469 52 32.9542 52 32.9616 52C32.969 52 32.9764 52 32.9838 52C32.9911 52 32.9985 52 33.0059 52C33.0133 52 33.0207 52 33.0281 52C33.0355 52 33.0429 52 33.0503 52C33.0577 52 33.0651 52 33.0725 52C33.0799 52 33.0873 52 33.0948 52C33.1022 52 33.1096 52 33.117 52C33.1244 52 33.1318 52 33.1393 52C33.1467 52 33.1541 52 33.1616 52C33.169 52 33.1764 52 33.1839 52C33.1913 52 33.1987 52 33.2062 52C33.2136 52 33.2211 52 33.2285 52C33.236 52 33.2434 52 33.2509 52C33.2583 52 33.2658 52 33.2733 52C33.2807 52 33.2882 52 33.2957 52C33.3031 52 33.3106 52 33.3181 52C33.3255 52 33.333 52 33.3405 52C33.348 52 33.3555 52 33.363 52C33.3704 52 33.3779 52 33.3854 52C33.3929 52 33.4004 52 33.4079 52C33.4154 52 33.4229 52 33.4304 52C33.4379 52 33.4454 52 33.4529 52C33.4604 52 33.4679 52 33.4754 52C33.483 52 33.4905 52 33.498 52C33.5055 52 33.513 52 33.5206 52C33.5281 52 33.5356 52 33.5432 52C33.5507 52 33.5582 52 33.5658 52C33.5733 52 33.5808 52 33.5884 52C33.5959 52 33.6035 52 33.611 52C33.6186 52 33.6261 52 33.6337 52C33.6412 52 33.6488 52 33.6563 52C33.6639 52 33.6715 52 33.679 52C33.6866 52 33.6942 52 33.7017 52C33.7093 52 33.7169 52 33.7244 52C33.732 52 33.7396 52 33.7472 52C33.7548 52 33.7624 52 33.7699 52C33.7775 52 33.7851 52 33.7927 52C33.8003 52 33.8079 52 33.8155 52C33.8231 52 33.8307 52 33.8383 52C33.8459 52 33.8535 52 33.8611 52C33.8687 52 33.8764 52 33.884 52C33.8916 52 33.8992 52 33.9068 52C33.9144 52 33.9221 52 33.9297 52C33.9373 52 33.945 52 33.9526 52C33.9602 52 33.9678 52 33.9755 52C33.9831 52 33.9908 52 33.9984 52C34.0061 52 34.0137 52 34.0213 52C34.029 52 34.0366 52 34.0443 52C34.052 52 34.0596 52 34.0673 52C34.0749 52 34.0826 52 34.0903 52C34.0979 52 34.1056 52 34.1133 52C34.1209 52 34.1286 52 34.1363 52C34.144 52 34.1516 52 34.1593 52C34.167 52 34.1747 52 34.1824 52C34.1901 52 34.1977 52 34.2054 52C34.2131 52 34.2208 52 34.2285 52C34.2362 52 34.2439 52 34.2516 52C34.2593 52 34.267 52 34.2747 52C34.2824 52 34.2901 52 34.2979 52C34.3056 52 34.3133 52 34.321 52C34.3287 52 34.3364 52 34.3442 52C34.3519 52 34.3596 52 34.3673 52C34.3751 52 34.3828 52 34.3905 52C34.3983 52 34.406 52 34.4138 52C34.4215 52 34.4292 52 34.437 52C34.4447 52 34.4525 52 34.4602 52C34.468 52 34.4757 52 34.4835 52C34.4912 52 34.499 52 34.5068 52C34.5145 52 34.5223 52 34.53 52C34.5378 52 34.5456 52 34.5533 52C34.5611 52 34.5689 52 34.5767 52C34.5844 52 34.5922 52 34.6 52C34.6078 52 34.6156 52 34.6233 52C34.6311 52 34.6389 52 34.6467 52C34.6545 52 34.6623 52 34.6701 52C34.6779 52 34.6857 52 34.6935 52C34.7013 52 34.7091 52 34.7169 52C34.7247 52 34.7325 52 34.7403 52C34.7481 52 34.756 52 34.7638 52C34.7716 52 34.7794 52 34.7872 52C34.795 52 34.8029 52 34.8107 52C34.8185 52 34.8264 52 34.8342 52C34.842 52 34.8499 52 34.8577 52C34.8655 52 34.8734 52 34.8812 52C34.889 52 34.8969 52 34.9047 52C34.9126 52 34.9204 52 34.9283 52C34.9361 52 34.944 52 34.9518 52C34.9597 52 34.9676 52 34.9754 52C34.9833 52 34.9912 52 34.999 52C35.0069 52 35.0148 52 35.0226 52C35.0305 52 35.0384 52 35.0462 52C35.0541 52 35.062 52 35.0699 52C35.0778 52 35.0856 52 35.0935 52C35.1014 52 35.1093 52 35.1172 52C35.1251 52 35.133 52 35.1409 52C35.1488 52 35.1567 52 35.1646 52C35.1725 52 35.1804 52 35.1883 52C35.1962 52 35.2041 52 35.212 52C35.2199 52 35.2278 52 35.2357 52C35.2437 52 35.2516 52 35.2595 52C35.2674 52 35.2753 52 35.2833 52C35.2912 52 35.2991 52 35.307 52C35.315 52 35.3229 52 35.3308 52C35.3388 52 35.3467 52 35.3546 52C35.3626 52 35.3705 52 35.3785 52C35.3864 52 35.3944 52 35.4023 52C35.4103 52 35.4182 52 35.4262 52C35.4341 52 35.4421 52 35.45 52C35.458 52 35.4659 52 35.4739 52C35.4819 52 35.4898 52 35.4978 52C35.5058 52 35.5137 52 35.5217 52C35.5297 52 35.5376 52 35.5456 52C35.5536 52 35.5616 52 35.5696 52C35.5775 52 35.5855 52 35.5935 52C35.6015 52 35.6095 52 35.6175 52C35.6255 52 35.6335 52 35.6414 52C35.6494 52 35.6574 52 35.6654 52C35.6734 52 35.6814 52 35.6894 52C35.6974 52 35.7055 52 35.7135 52C35.7215 52 35.7295 52 35.7375 52C35.7455 52 35.7535 52 35.7615 52C35.7696 52 35.7776 52 35.7856 52C35.7936 52 35.8016 52 35.8097 52C35.8177 52 35.8257 52 35.8338 52C35.8418 52 35.8498 52 35.8579 52C35.8659 52 35.8739 52 35.882 52C35.89 52 35.898 52 35.9061 52C35.9141 52 35.9222 52 35.9302 52C35.9383 52 35.9463 52 35.9544 52C35.9624 52 35.9705 52 35.9786 52C35.9866 52 35.9947 52 36.0027 52C36.0108 52 36.0189 52 36.0269 52C36.035 52 36.0431 52 36.0511 52C36.0592 52 36.0673 52 36.0753 52C36.0834 52 36.0915 52 36.0996 52C36.1077 52 36.1157 52 36.1238 52C36.1319 52 36.14 52 36.1481 52C36.1562 52 36.1643 52 36.1724 52C36.1804 52 36.1885 52 36.1966 52C36.2047 52 36.2128 52 36.2209 52C36.229 52 36.2371 52 36.2452 52C36.2533 52 36.2615 52 36.2696 52C36.2777 52 36.2858 52 36.2939 52C36.302 52 36.3101 52 36.3182 52C36.3264 52 36.3345 52 36.3426 52C36.3507 52 36.3589 52 36.367 52C36.3751 52 36.3832 52 36.3914 52C36.3995 52 36.4076 52 36.4158 52C36.4239 52 36.432 52 36.4402 52C36.4483 52 36.4565 52 36.4646 52C36.4727 52 36.4809 52 36.489 52C36.4972 52 36.5053 52 36.5135 52C36.5216 52 36.5298 52 36.5379 52C36.5461 52 36.5543 52 36.5624 52C36.5706 52 36.5787 52 36.5869 52C36.5951 52 36.6032 52 36.6114 52C36.6196 52 36.6277 52 36.6359 52C36.6441 52 36.6523 52 36.6604 52C36.6686 52 36.6768 52 36.685 52C36.6931 52 36.7013 52 36.7095 52C36.7177 52 36.7259 52 36.7341 52C36.7423 52 36.7504 52 36.7586 52C36.7668 52 36.775 52 36.7832 52C36.7914 52 36.7996 52 36.8078 52C36.816 52 36.8242 52 36.8324 52C36.8406 52 36.8488 52 36.857 52C36.8652 52 36.8735 52 36.8817 52C36.8899 52 36.8981 52 36.9063 52C36.9145 52 36.9227 52 36.931 52C36.9392 52 36.9474 52 36.9556 52C36.9638 52 36.9721 52 36.9803 52C36.9885 52 36.9968 52 37.005 52C37.0132 52 37.0215 52 37.0297 52C37.0379 52 37.0462 52 37.0544 52C37.0626 52 37.0709 52 37.0791 52C37.0874 52 37.0956 52 37.1039 52C37.1121 52 37.1204 52 37.1286 52C37.1369 52 37.1451 52 37.1534 52C37.1616 52 37.1699 52 37.1781 52C37.1864 52 37.1947 52 37.2029 52C37.2112 52 37.2194 52 37.2277 52C37.236 52 37.2442 52 37.2525 52C37.2608 52 37.269 52 37.2773 52C37.2856 52 37.2939 52 37.3021 52C37.3104 52 37.3187 52 37.327 52C37.3353 52 37.3435 52 37.3518 52C37.3601 52 37.3684 52 37.3767 52C37.385 52 37.3933 52 37.4016 52C37.4099 52 37.4181 52 37.4264 52C37.4347 52 37.443 52 37.4513 52C37.4596 52 37.4679 52 37.4762 52C37.4845 52 37.4928 52 37.5012 52C37.5095 52 37.5178 52 37.5261 52C37.5344 52 37.5427 52 37.551 52C37.5593 52 37.5676 52 37.576 52C37.5843 52 37.5926 52 37.6009 52C37.6092 52 37.6176 52 37.6259 52C37.6342 52 37.6425 52 37.6509 52C37.6592 52 37.6675 52 37.6759 52C37.6842 52 37.6925 52 37.7009 52C37.7092 52 37.7175 52 37.7259 52C37.7342 52 37.7425 52 37.7509 52C37.7592 52 37.7676 52 37.7759 52C37.7843 52 37.7926 52 37.801 52C37.8093 52 37.8177 52 37.826 52C37.8344 52 37.8427 52 37.8511 52C37.8594 52 37.8678 52 37.8761 52C37.8845 52 37.8929 52 37.9012 52C37.9096 52 37.918 52 37.9263 52C37.9347 52 37.9431 52 37.9514 52C37.9598 52 37.9682 52 37.9765 52C37.9849 52 37.9933 52 38.0017 52C38.01 52 38.0184 52 38.0268 52C38.0352 52 38.0436 52 38.0519 52C38.0603 52 38.0687 52 38.0771 52C38.0855 52 38.0939 52 38.1023 52C38.1106 52 38.119 52 38.1274 52C38.1358 52 38.1442 52 38.1526 52C38.161 52 38.1694 52 38.1778 52C38.1862 52 38.1946 52 38.203 52C38.2114 52 38.2198 52 38.2282 52C38.2366 52 38.245 52 38.2535 52C38.2619 52 38.2703 52 38.2787 52C38.2871 52 38.2955 52 38.3039 52C38.3123 52 38.3208 52 38.3292 52C38.3376 52 38.346 52 38.3544 52C38.3629 52 38.3713 52 38.3797 52C38.3881 52 38.3966 52 38.405 52C38.4134 52 38.4219 52 38.4303 52C38.4387 52 38.4472 52 38.4556 52C38.464 52 38.4725 52 38.4809 52C38.4893 52 38.4978 52 38.5062 52C38.5147 52 38.5231 52 38.5315 52C38.54 52 38.5484 52 38.5569 52C38.5653 52 38.5738 52 38.5822 52C38.5907 52 38.5991 52 38.6076 52C38.616 52 38.6245 52 38.633 52C38.6414 52 38.6499 52 38.6583 52C38.6668 52 38.6753 52 38.6837 52C38.6922 52 38.7006 52 38.7091 52C38.7176 52 38.726 52 38.7345 52C38.743 52 38.7514 52 38.7599 52C38.7684 52 38.7769 52 38.7853 52C38.7938 52 38.8023 52 38.8108 52C38.8192 52 38.8277 52 38.8362 52C38.8447 52 38.8532 52 38.8617 52C38.8701 52 38.8786 52 38.8871 52C38.8956 52 38.9041 52 38.9126 52C38.9211 52 38.9296 52 38.938 52C38.9465 52 38.955 52 38.9635 52C38.972 52 38.9805 52 38.989 52C38.9975 52 39.006 52 39.0145 52C39.023 52 39.0315 52 39.04 52C39.0485 52 39.057 52 39.0655 52C39.0741 52 39.0826 52 39.0911 52C39.0996 52 39.1081 52 39.1166 52C39.1251 52 39.1336 52 39.1421 52C39.1507 52 39.1592 52 39.1677 52C39.1762 52 39.1847 52 39.1933 52C39.2018 52 39.2103 52 39.2188 52C39.2273 52 39.2359 52 39.2444 52C39.2529 52 39.2615 52 39.27 52C39.2785 52 39.287 52 39.2956 52C39.3041 52 39.3126 52 39.3212 52C39.3297 52 39.3382 52 39.3468 52C39.3553 52 39.3639 52 39.3724 52C39.3809 52 39.3895 52 39.398 52C39.4066 52 39.4151 52 39.4237 52C39.4322 52 39.4407 52 39.4493 52C39.4578 52 39.4664 52 39.4749 52C39.4835 52 39.492 52 39.5006 52C39.5092 52 39.5177 52 39.5263 52C39.5348 52 39.5434 52 39.5519 52C39.5605 52 39.5691 52 39.5776 52C39.5862 52 39.5947 52 39.6033 52C39.6119 52 39.6204 52 39.629 52C39.6376 52 39.6461 52 39.6547 52C39.6633 52 39.6718 52 39.6804 52C39.689 52 39.6976 52 39.7061 52C39.7147 52 39.7233 52 39.7319 52C39.7404 52 39.749 52 39.7576 52C39.7662 52 39.7747 52 39.7833 52C39.7919 52 39.8005 52 39.8091 52C39.8177 52 39.8262 52 39.8348 52C39.8434 52 39.852 52 39.8606 52C39.8692 52 39.8778 52 39.8864 52C39.895 52 39.9036 52 39.9121 52C39.9207 52 39.9293 52 39.9379 52C39.9465 52 39.9551 52 39.9637 52C39.9723 52 39.9809 52 39.9895 52C39.9981 52 40.0067 52 40.0153 52C40.0239 52 40.0325 52 40.0411 52C40.0498 52 40.0584 52 40.067 52C40.0756 52 40.0842 52 40.0928 52C40.1014 52 40.11 52 40.1186 52C40.1272 52 40.1359 52 40.1445 52C40.1531 52 40.1617 52 40.1703 52C40.1789 52 40.1876 52 40.1962 52C40.2048 52 40.2134 52 40.222 52C40.2307 52 40.2393 52 40.2479 52C40.2565 52 40.2652 52 40.2738 52C40.2824 52 40.291 52 40.2997 52C40.3083 52 40.3169 52 40.3256 52C40.3342 52 40.3428 52 40.3515 52C40.3601 52 40.3687 52 40.3774 52C40.386 52 40.3946 52 40.4033 52C40.4119 52 40.4205 52 40.4292 52C40.4378 52 40.4465 52 40.4551 52C40.4638 52 40.4724 52 40.481 52C40.4897 52 40.4983 52 40.507 52C40.5156 52 40.5243 52 40.5329 52C40.5416 52 40.5502 52 40.5589 52C40.5675 52 40.5762 52 40.5848 52C40.5935 52 40.6021 52 40.6108 52C40.6194 52 40.6281 52 40.6368 52C40.6454 52 40.6541 52 40.6627 52C40.6714 52 40.68 52 40.6887 52C40.6974 52 40.706 52 40.7147 52C40.7234 52 40.732 52 40.7407 52C40.7493 52 40.758 52 40.7667 52C40.7754 52 40.784 52 40.7927 52C40.8014 52 40.81 52 40.8187 52C40.8274 52 40.836 52 40.8447 52C40.8534 52 40.8621 52 40.8707 52C40.8794 52 40.8881 52 40.8968 52C40.9054 52 40.9141 52 40.9228 52C40.9315 52 40.9402 52 40.9488 52C40.9575 52 40.9662 52 40.9749 52C40.9836 52 40.9923 52 41.0009 52C41.0096 52 41.0183 52 41.027 52C41.0357 52 41.0444 52 41.0531 52C41.0617 52 41.0704 52 41.0791 52C41.0878 52 41.0965 52 41.1052 52C41.1139 52 41.1226 52 41.1313 52C41.14 52 41.1487 52 41.1574 52C41.1661 52 41.1748 52 41.1835 52C41.1922 52 41.2008 52 41.2095 52C41.2182 52 41.2269 52 41.2357 52C41.2444 52 41.2531 52 41.2618 52C41.2705 52 41.2792 52 41.2879 52C41.2966 52 41.3053 52 41.314 52C41.3227 52 41.3314 52 41.3401 52C41.3488 52 41.3575 52 41.3662 52C41.3749 52 41.3837 52 41.3924 52C41.4011 52 41.4098 52 41.4185 52C41.4272 52 41.4359 52 41.4447 52C41.4534 52 41.4621 52 41.4708 52C41.4795 52 41.4882 52 41.497 52C41.5057 52 41.5144 52 41.5231 52C41.5318 52 41.5406 52 41.5493 52C41.558 52 41.5667 52 41.5754 52C41.5842 52 41.5929 52 41.6016 52C41.6103 52 41.6191 52 41.6278 52C41.6365 52 41.6452 52 41.654 52C41.6627 52 41.6714 52 41.6802 52C41.6889 52 41.6976 52 41.7064 52C41.7151 52 41.7238 52 41.7325 52C41.7413 52 41.75 52 41.7588 52C41.7675 52 41.7762 52 41.785 52C41.7937 52 41.8024 52 41.8112 52C41.8199 52 41.8286 52 41.8374 52C41.8461 52 41.8549 52 41.8636 52C41.8723 52 41.8811 52 41.8898 52C41.8986 52 41.9073 52 41.9161 52C41.9248 52 41.9335 52 41.9423 52C41.951 52 41.9598 52 41.9685 52C41.9773 52 41.986 52 41.9948 52C42.0035 52 42.0123 52 42.021 52C42.0298 52 42.0385 52 42.0473 52V50ZM3 53V41H1V53H3ZM3 41C3 40.4477 3.44772 40 4 40V38C2.34315 38 1 39.3431 1 41H3ZM4 40H22V38H4V40ZM22 40C22.5523 40 23 40.4477 23 41H25C25 39.3431 23.6569 38 22 38V40ZM23 41V53H25V41H23ZM14.8795 53.5191C14.483 54.242 13.76 54.6663 13 54.6663V56.6663C14.5185 56.6663 15.8992 55.8188 16.633 54.4809L14.8795 53.5191ZM13 54.6663C12.24 54.6663 11.517 54.242 11.1205 53.5191L9.36695 54.4809C10.1008 55.8188 11.4815 56.6663 13 56.6663V54.6663ZM10.2437 53H1V55H10.2437V53ZM0 54V55H2V54H0ZM0 55C0 57.7614 2.23858 60 5 60V58C3.34315 58 2 56.6569 2 55H0ZM5 60H21V58H5V60ZM21 60C23.7614 60 26 57.7614 26 55H24C24 56.6569 22.6569 58 21 58V60ZM26 55V54H24V55H26ZM25 53H15.7563V55H25V53ZM44.003 14.997H51.003V12.997H44.003V14.997ZM51.003 14.997C52.6598 14.997 54.003 16.3402 54.003 17.997H56.003C56.003 15.2356 53.7644 12.997 51.003 12.997V14.997ZM54.003 17.997V18.9986H56.003V17.997H54.003ZM16.0044 13H9V15H16.0044V13ZM9 13C6.23858 13 4 15.2386 4 18H6C6 16.3431 7.34315 15 9 15V13ZM4 18V19.0016H6V18H4ZM30 45H43V43H30V45ZM57 41H50V43H57V41ZM50 41C48.3431 41 47 42.3431 47 44H49C49 43.4477 49.4477 43 50 43V41ZM47 44V57H49V44H47ZM47 57C47 58.6569 48.3431 60 50 60V58C49.4477 58 49 57.5523 49 57H47ZM50 60H57V58H50V60ZM57 60C58.6569 60 60 58.6569 60 57H58C58 57.5523 57.5523 58 57 58V60ZM60 57V44H58V57H60ZM60 44C60 42.3431 58.6569 41 57 41V43C57.5523 43 58 43.4477 58 44H60ZM48 56H59V54H48V56ZM24 20H36V18H24V20ZM36 20C37.6569 20 39 18.6569 39 17H37C37 17.5523 36.5523 18 36 18V20ZM39 17V9H37V17H39ZM39 9C39 7.34315 37.6569 6 36 6V8C36.5523 8 37 8.44772 37 9H39ZM36 6H24V8H36V6ZM24 6C22.3431 6 21 7.34315 21 9H23C23 8.44772 23.4477 8 24 8V6ZM21 9V17H23V9H21ZM21 17C21 18.6569 22.3431 20 24 20V18C23.4477 18 23 17.5523 23 17H21ZM31 15.5V12H29V15.5H31ZM27 7V5.50225H25V7H27ZM27 5.50225C27 3.45204 28.4507 2 30 2V0C27.1307 0 25 2.57597 25 5.50225H27ZM30 2C31.5482 2 33 3.45227 33 5.50225H35C35 2.57574 32.8678 0 30 0V2ZM33 5.50225V7H35V5.50225H33ZM30 12V14C31.1043 14 32 13.1043 32 12H30ZM30 12H28C28 13.1043 28.8957 14 30 14V12ZM30 12V10C28.8957 10 28 10.8957 28 12H30ZM30 12H32C32 10.8957 31.1043 10 30 10V12Z" fill="#25282D"/>
</svg>
