<svg xmlns="http://www.w3.org/2000/svg" fill="none" viewBox="0 0 200 200"><path fill="#020F66" fill-rule="evenodd" d="M93.77 171a1 1 0 0 1 1-1h61.73a1 1 0 1 1 0 2H94.77a1 1 0 0 1-1-1Z" clip-rule="evenodd"></path><path fill="#020F66" fill-rule="evenodd" d="M113.74 171v-18.1h2V171h-2Zm19.97 0v-18.1h2V171h-2Z" clip-rule="evenodd"></path><path fill="#020F66" fill-rule="evenodd" d="M187 63h-55.5v-4H187a10 10 0 0 1 10 10v74.26a10 10 0 0 1-10 10H63a10 10 0 0 1-10-10V120.5h4v22.76a6 6 0 0 0 6 6h124a6 6 0 0 0 6-6V69a6 6 0 0 0-6-6Z" clip-rule="evenodd"></path><path fill="#2CDDE9" fill-rule="evenodd" d="M186 69h-52.5v-2H186a3 3 0 0 1 3 3v72a3 3 0 0 1-3 3H64a3 3 0 0 1-3-3v-18h2v18a1 1 0 0 0 1 1h122a1 1 0 0 0 1-1V70a1 1 0 0 0-1-1Z" clip-rule="evenodd"></path><path fill="#020F66" fill-rule="evenodd" d="M132.3 79a48 48 0 1 0-96 0 48 48 0 0 0 96 0Zm-48-52a52 52 0 1 1 0 104 52 52 0 0 1 0-104Z" clip-rule="evenodd"></path><path fill="#2CDDE9" fill-rule="evenodd" d="M85.5 122a1 1 0 0 1-1 1C59.93 123 40 103.31 40 79a1 1 0 0 1 2 0c0 23.19 19.02 42 42.5 42a1 1 0 0 1 1 1ZM128 80a1 1 0 0 1-1-1c0-23.19-19.02-42-42.5-42a1 1 0 1 1 0-2c24.57 0 44.5 19.69 44.5 44a1 1 0 0 1-1 1Z" clip-rule="evenodd"></path><path fill="#020F66" fill-rule="evenodd" d="M8.95 147.82a3 3 0 0 0 0 4.24l2.21 2.22a3 3 0 0 0 4.25 0l36.85-36.86a2 2 0 1 1 2.83 2.83l-36.85 36.86a7 7 0 0 1-9.9 0l-2.22-2.22a7 7 0 0 1 0-9.9l36.86-36.85a2 2 0 0 1 2.82 2.83L8.95 147.82ZM112.43 58.6a2 2 0 0 1-.03 2.83l-35.59 35A2 2 0 0 1 74 96.4L54.57 76.68a2 2 0 1 1 2.86-2.81l18 18.3 34.17-33.6a2 2 0 0 1 2.83.03Z" clip-rule="evenodd"></path></svg>