<svg xmlns="http://www.w3.org/2000/svg" fill="none" viewBox="0 0 200 200"><path fill="#020F66" fill-rule="evenodd" d="M164 5c-5.8 0-10 4-10 8.29V21h-4v-7.71C150 6.24 156.59 1 164 1s14 5.21 14 12.29V21h-4v-7.71c0-4.3-4.2-8.29-10-8.29ZM39 151c-5.8 0-10 4-10 8.29V167h-4v-7.71c0-7.05 6.58-12.29 14-12.29 7.41 0 14 5.21 14 12.29V167h-4v-7.71c0-4.3-4.2-8.29-10-8.29Z" clip-rule="evenodd"></path><path fill="#020F66" fill-rule="evenodd" d="M144 29a10 10 0 0 1 10-10h20a10 10 0 0 1 10 10v13a10 10 0 0 1-10 10h-20a10 10 0 0 1-10-10V29Zm10-6a6 6 0 0 0-6 6v13a6 6 0 0 0 6 6h20a6 6 0 0 0 6-6V29a6 6 0 0 0-6-6h-20ZM19 175a10 10 0 0 1 10-10h20a10 10 0 0 1 10 10v13a10 10 0 0 1-10 10H29a10 10 0 0 1-10-10v-13Zm10-6a6 6 0 0 0-6 6v13a6 6 0 0 0 6 6h20a6 6 0 0 0 6-6v-13a6 6 0 0 0-6-6H29Z" clip-rule="evenodd"></path><path fill="#2CDDE9" d="M163 34.32c-.6-.24-1-.7-1-1.24v-.64c0-.8.9-1.44 2-1.44s2 .64 2 1.44v.64c0 .53-.4 1-1 1.24v3.96c0 .4-.45.72-1 .72s-1-.32-1-.72v-3.96Zm-125 146c-.6-.24-1-.7-1-1.24v-.64c0-.8.9-1.44 2-1.44s2 .64 2 1.44v.64c0 .53-.4 1-1 1.24v3.96c0 .4-.45.72-1 .72s-1-.32-1-.72v-3.96Z"></path><path fill="#020F66" fill-rule="evenodd" d="M117.94 69.94a2 2 0 0 1 .81 2l-9.8 52.61a2 2 0 0 1-2.68 1.5l-14.9-5.74-7.57 8.81a2 2 0 0 1-3.52-1.3v-13.08a2 2 0 0 1 .47-1.29l22.67-26.89a2 2 0 1 1 3.05 2.58l-22.19 26.33v6.95l4.97-5.79a2 2 0 0 1 2.23-.56l13.98 5.39 8.57-46-49.88 28.47 10.48 4.77a2 2 0 0 1-1.65 3.64l-14.04-6.4a2 2 0 0 1-.16-3.55l57.01-32.55a2 2 0 0 1 2.15.1Z" clip-rule="evenodd"></path><path fill="#2CDDE9" fill-rule="evenodd" d="M57.45 149.68a2 2 0 0 1-.3-2.82l.3-.37a2 2 0 0 1 3.1 2.52l-.3.37a2 2 0 0 1-2.8.3Zm5.71-7.06a2 2 0 0 1-.3-2.81l.6-.75a2 2 0 1 1 3.11 2.52l-.6.74a2 2 0 0 1-2.81.3Zm6.01-7.43a2 2 0 0 1-.3-2.81l.3-.37a2 2 0 1 1 3.12 2.52l-.3.37a2 2 0 0 1-2.82.3Zm55.46-68.49a2 2 0 0 1-.3-2.8l.3-.38a2 2 0 0 1 3.12 2.52l-.3.37a2 2 0 0 1-2.82.3Zm5.72-7.05a2 2 0 0 1-.3-2.81l.6-.75a2 2 0 0 1 3.11 2.52l-.6.74a2 2 0 0 1-2.81.3Zm6.01-7.43a2 2 0 0 1-.3-2.81l.3-.37a2 2 0 1 1 3.12 2.51l-.3.38a2 2 0 0 1-2.82.3ZM100 14a86 86 0 0 0-86 86 1 1 0 0 1-2 0 88 88 0 0 1 111.44-84.84 1 1 0 1 1-.53 1.93A86.09 86.09 0 0 0 100 14Zm87 85a1 1 0 0 1 1 1 88 88 0 0 1-100.26 87.15 1 1 0 0 1 .28-1.98A86 86 0 0 0 186 100a1 1 0 0 1 1-1Z" clip-rule="evenodd"></path><path fill="#020F66" fill-rule="evenodd" d="M100 8a92 92 0 0 0-92 92 91.64 91.64 0 0 0 8.75 39.21 2 2 0 1 1-3.62 1.7A95.64 95.64 0 0 1 4 100 96 96 0 0 1 125.57 7.44a2 2 0 0 1-1.06 3.86A92.1 92.1 0 0 0 100 8Zm87.74 58.14a2 2 0 0 1 2.56 1.2A95.83 95.83 0 0 1 196 100a96 96 0 0 1-109.37 95.08 2 2 0 0 1 .55-3.97A92 92 0 0 0 192 100c0-11-1.93-21.53-5.46-31.3a2 2 0 0 1 1.2-2.56Z" clip-rule="evenodd"></path></svg>