<svg xmlns="http://www.w3.org/2000/svg" fill="none" viewBox="0 0 200 200"><path fill="#2CDDE9" fill-rule="evenodd" d="M37 56a7 7 0 0 1 7-7h114a7 7 0 0 1 7 7v5h-2v-5a5 5 0 0 0-5-5H44a5 5 0 0 0-5 5v15h-2V56Zm7 67h85v2H44v-2Z" clip-rule="evenodd"></path><path fill="#020F66" fill-rule="evenodd" d="M70 150a1 1 0 0 1 1-1h58a1 1 0 0 1 0 2H71a1 1 0 0 1-1-1Z" clip-rule="evenodd"></path><path fill="#020F66" fill-rule="evenodd" d="M89.74 150v-17.76h2V150h-2Zm19.97 0v-17.76h2V150h-2Z" clip-rule="evenodd"></path><path fill="#020F66" fill-rule="evenodd" d="M29 55a14 14 0 0 1 14-14h116a14 14 0 0 1 14 14v6h-4v-6a10 10 0 0 0-10-10H43a10 10 0 0 0-10 10v16h-4V55Zm15 74h85v4H44v-4Z" clip-rule="evenodd"></path><path fill="#020F66" d="M29.87 101.19a.64.64 0 0 0-.46-.19H17.65a.63.63 0 0 0-.46.19.6.6 0 0 0-.19.45v7.63c0 .57.11 1.14.34 1.7.23.56.51 1.05.85 1.49.34.43.74.85 1.2 1.27a14.13 14.13 0 0 0 4.14 2.54c.1 0 .18-.02.27-.06a11.18 11.18 0 0 0 1.35-.69 14.2 14.2 0 0 0 2.53-1.8 9.3 9.3 0 0 0 1.2-1.26c.33-.44.62-.93.85-1.5.22-.55.34-1.12.34-1.69v-7.63a.6.6 0 0 0-.2-.45Zm-1.51 8.15c0 2.77-4.83 5.15-4.83 5.15v-11.85h4.83v6.7Zm141.51-8.15a.64.64 0 0 0-.46-.19h-11.76a.63.63 0 0 0-.46.19.6.6 0 0 0-.19.45v7.63c0 .57.11 1.14.34 1.7.23.56.51 1.05.85 1.49.34.43.74.85 1.2 1.27a14.16 14.16 0 0 0 4.14 2.54.6.6 0 0 0 .27-.06 12.14 12.14 0 0 0 1.34-.69 14.24 14.24 0 0 0 2.53-1.8c.47-.4.87-.83 1.2-1.26.34-.44.63-.93.85-1.5.23-.55.35-1.12.35-1.69v-7.63a.6.6 0 0 0-.2-.45Zm-1.51 8.15c0 2.77-4.83 5.15-4.83 5.15v-11.85h4.83v6.7Z"></path><path fill="#2CDDE9" fill-rule="evenodd" d="M101 71c-4 0-7 2.77-7 5.86V82h-2v-5.14c0-4.47 4.2-7.86 9-7.86s9 3.37 9 7.86V82h-2v-5.14c0-3.1-3-5.86-7-5.86Z" clip-rule="evenodd"></path><path fill="#2CDDE9" fill-rule="evenodd" d="M88 88.08a7 7 0 0 1 7-7h12a7 7 0 0 1 7 7v8a7 7 0 0 1-7 7H95a7 7 0 0 1-7-7v-8Zm7-5a5 5 0 0 0-5 5v8a5 5 0 0 0 5 5h12a5 5 0 0 0 5-5v-8a5 5 0 0 0-5-5H95Z" clip-rule="evenodd"></path><path fill="#2CDDE9" d="M100.2 91.56a1.4 1.4 0 0 1-.75-1.22v-.43c0-.78.67-1.42 1.5-1.42s1.5.64 1.5 1.42v.43c0 .52-.3.98-.75 1.22v2.81c0 .4-.34.71-.75.71-.42 0-.75-.32-.75-.7v-2.82Z"></path><path fill="#020F66" fill-rule="evenodd" d="M36 73H12a6 6 0 0 0-6 6v60a6 6 0 0 0 6 6h24a6 6 0 0 0 6-6V79a6 6 0 0 0-6-6Zm-24-4A10 10 0 0 0 2 79v60a10 10 0 0 0 10 10h24a10 10 0 0 0 10-10V79a10 10 0 0 0-10-10H12Z" clip-rule="evenodd"></path><path fill="#2CDDE9" fill-rule="evenodd" d="M22.37 77.8a1 1 0 0 1 1-1h1.24a1 1 0 1 1 0 2h-1.24a1 1 0 0 1-1-1Z" clip-rule="evenodd"></path><path fill="#020F66" fill-rule="evenodd" d="M127 69a10 10 0 0 1 10-10h53a10 10 0 0 1 10 10v80a10 10 0 0 1-10 10h-53a10 10 0 0 1-10-10V69Zm10-6a6 6 0 0 0-6 6v80a6 6 0 0 0 6 6h53a6 6 0 0 0 6-6V69a6 6 0 0 0-6-6h-53Z" clip-rule="evenodd"></path><path fill="#2CDDE9" d="M166 150a2 2 0 1 1-4 0 2 2 0 0 1 4 0Z"></path></svg>